<svg xmlns="http://www.w3.org/2000/svg"><symbol id="airfilter" viewBox="0 0 97 120">
    <title>
        Combined Shape
    </title>
    <path d="M96.47 80.157a6.43 6.43 0 0 0 .174-.468v6.613c0 1.865-2.034 4.917-5.256 6.613-1.813.954-4.808 3.359-12.886 5.279v11.167s1.78.933 1.526 1.865c-.178.655-.404 1.265-1.187 2.204-1.267 1.522-12.561 6.539-30.688 6.57-18.128-.031-29.421-5.048-30.69-6.57-.782-.939-1.007-1.55-1.186-2.204-.254-.932 1.526-1.865 1.526-1.865v-11.25c-7.82-1.906-10.76-4.256-12.547-5.196C2.035 91.219 0 88.167 0 86.302V79.69c.05.159.11.314.174.468l13.165-69.664-.114.02V4.746c0-1.695 2.374-2.543 3.9-2.882C18.65 1.525 34.249 0 48.153 0h.339C62.395 0 77.994 1.526 79.52 1.865c1.525.34 3.9 1.187 3.9 2.882v5.765l-.114-.019L96.47 80.157zM66.356 8.875a297.792 297.792 0 0 0-4.572-.188l9.29 81.717c1.625-.202 3.257-.433 4.869-.702L66.355 8.875zm-8.904-.308a372.243 372.243 0 0 0-3.598-.06l4.45 82.971c1.93-.095 4.04-.226 6.247-.407L57.451 8.567zM46.576 8.48l-2.15 83.21c1.788.036 3.094.039 3.726.039h.34c.632 0 1.938-.003 3.726-.04L50.068 8.48l-1.407-.001h-.678l-1.407.001zm-3.786.028c-1.091.013-2.3.032-3.597.06l-7.1 82.504c2.208.18 4.32.312 6.249.407L42.79 8.507zm-7.93.18c-1.475.05-3.01.112-4.571.188l-9.587 80.827c1.612.268 3.244.5 4.868.702l9.29-81.717zM3.04 83.672c.775.6 1.67 1.155 2.66 1.668L18.976 9.727c-.931.101-1.844.21-2.731.33L3.039 83.671zm11.776 4.849l11.61-79.426c-1.444.093-2.889.201-4.312.326L10.083 87.17a54.43 54.43 0 0 0 4.733 1.35zm61.397 21.264v-8.647c-8.647 4.365-24.585 4.365-27.722 4.365h-.339c-3.136 0-19.074 0-27.721-4.365v8.647s8.308 5.001 27.721 5.001h.34c19.413 0 27.721-5.001 27.721-5.001zm5.615-21.264a54.46 54.46 0 0 0 4.734-1.35L74.53 9.42a195.175 195.175 0 0 0-4.311-.326l11.61 79.426zm9.117-3.18a17.656 17.656 0 0 0 2.66-1.669L80.4 10.056c-.888-.118-1.8-.228-2.732-.329L90.945 85.34zm-43.47 22.918a.85.85 0 0 1 .847-.848.85.85 0 0 1 .848.848v4.663a.85.85 0 0 1-.848.847.85.85 0 0 1-.848-.847v-4.663zm-3.222-.848a.85.85 0 0 1 .847.848v4.663a.85.85 0 0 1-.847.847.85.85 0 0 1-.848-.847v-4.663a.85.85 0 0 1 .848-.848zm-4.07-.509a.85.85 0 0 1 .848.848v4.663a.85.85 0 0 1-.847.848.85.85 0 0 1-.848-.848v-4.663a.85.85 0 0 1 .848-.848zm-4.069-.508a.85.85 0 0 1 .848.848v4.662a.85.85 0 0 1-.848.848.85.85 0 0 1-.847-.848v-4.662a.85.85 0 0 1 .847-.848zm-4.069-.509a.85.85 0 0 1 .848.848v4.663a.85.85 0 0 1-.848.847.85.85 0 0 1-.848-.847v-4.663a.85.85 0 0 1 .848-.848zm-4.07-1.017a.85.85 0 0 1 .849.847v4.663a.85.85 0 0 1-.848.848.85.85 0 0 1-.848-.848v-4.663a.85.85 0 0 1 .848-.847zm-4.068-1.272a.85.85 0 0 1 .847.848v4.663a.85.85 0 0 1-.847.847.85.85 0 0 1-.848-.847v-4.663a.85.85 0 0 1 .848-.848zm28.484 10.173a.85.85 0 0 1-.848-.847v-4.663a.85.85 0 0 1 .848-.848.85.85 0 0 1 .848.848v4.663a.85.85 0 0 1-.848.847zm4.07-.508a.85.85 0 0 1-.848-.848v-4.663a.85.85 0 0 1 .848-.848.85.85 0 0 1 .847.848v4.663a.85.85 0 0 1-.847.848zm4.069-.51a.85.85 0 0 1-.848-.847v-4.663a.85.85 0 0 1 .848-.847.85.85 0 0 1 .848.847v4.663a.85.85 0 0 1-.848.848zm4.069-.508a.85.85 0 0 1-.848-.847v-4.663a.85.85 0 0 1 .848-.848.85.85 0 0 1 .848.848v4.663a.85.85 0 0 1-.848.847zm4.07-1.017a.85.85 0 0 1-.848-.848v-4.663a.85.85 0 0 1 .847-.847.85.85 0 0 1 .848.847v4.663a.85.85 0 0 1-.848.848zm4.068-1.272a.85.85 0 0 1-.847-.847v-4.663a.85.85 0 0 1 .847-.848.85.85 0 0 1 .848.848v4.663a.85.85 0 0 1-.848.847z" fill-rule="nonzero"/>
</symbol><symbol id="frontbrakes" viewBox="0 0 120 120">
    <title>
        Shape
    </title>
    <path d="M120 66.037V53.585l-1.928-.571a58.204 58.204 0 0 0-12.314-29.445l.936-1.725-8.804-8.805-1.764.959A58.232 58.232 0 0 0 66.594 1.882L66.037 0H53.585l-.573 1.926A58.228 58.228 0 0 0 23.567 14.24l-1.725-.936-8.805 8.806.959 1.764a58.21 58.21 0 0 0-12.114 29.53L0 53.96v12.453l1.928.57a58.214 58.214 0 0 0 12.314 29.444l-.938 1.726 8.806 8.807 1.764-.96a58.209 58.209 0 0 0 29.532 12.115l.555 1.882h12.454l.57-1.926a58.196 58.196 0 0 0 29.446-12.314l1.727.938 8.803-8.808-.957-1.764a58.216 58.216 0 0 0 12.114-29.53l1.882-.557zM109.195 44.26c.66.025 1.175.576 1.155 1.236a1.2 1.2 0 0 1-1.236 1.157 1.203 1.203 0 0 1-1.155-1.236 1.2 1.2 0 0 1 1.236-1.157zm-1.847 7.616a1.196 1.196 0 1 1-.08 2.388 1.196 1.196 0 0 1 .08-2.388zM91.903 24.72l4.6-4.65a2.14 2.14 0 0 1 3.025-.02c.838.833.844 2.187.017 3.025l-4.601 4.651c-.83.84-2.184.846-3.022.018a2.136 2.136 0 0 1-.02-3.024zm-4.106 5.594a1.793 1.793 0 1 1 0 3.586 1.793 1.793 0 0 1 0-3.586zM59.905 75.283c-8.375 0-15.19-6.815-15.19-15.188 0-8.377 6.815-15.19 15.19-15.19 8.373 0 15.188 6.813 15.188 15.19.001 8.373-6.813 15.188-15.188 15.188zm.43 5.34a1.635 1.635 0 1 1-1.551-2.88 1.635 1.635 0 0 1 1.551 2.88zM48.218 46.822a1.636 1.636 0 1 1-3.133-.941 1.636 1.636 0 0 1 3.133.941zm-3.622 26.054a1.635 1.635 0 1 1 3.132.94 1.635 1.635 0 0 1-3.132-.94zm-4.919-30.339l-.969-3.621 3.622.97 3.621.971-2.65 2.653-2.651 2.65-.973-3.623zm.365 15.77a1.632 1.632 0 0 1 2.213.667 1.63 1.63 0 0 1-.665 2.213 1.638 1.638 0 0 1-2.215-.663 1.637 1.637 0 0 1 .667-2.217zm.69 15.97l2.651 2.651 2.65 2.651-3.62.969-3.622.972.97-3.623.971-3.62zm18.744-34.711a1.635 1.635 0 1 1 1.55 2.88 1.635 1.635 0 0 1-1.55-2.88zm15.738 7.744a1.636 1.636 0 1 1-3.134-.941 1.636 1.636 0 0 1 3.134.941zm-.489 26.996a1.635 1.635 0 0 1-2.04 1.092 1.636 1.636 0 0 1-1.095-2.036 1.64 1.64 0 0 1 2.04-1.095 1.642 1.642 0 0 1 1.095 2.04zm5.698 3.508l.969 3.62-3.622-.969-3.621-.969 2.65-2.65 2.653-2.651.97 3.62zm-.656-15.935a1.633 1.633 0 1 1-1.547-2.878 1.633 1.633 0 1 1 1.547 2.878zm-.397-15.8l-2.653-2.652-2.651-2.652 3.622-.971 3.623-.969-.973 3.62-.968 3.623zm-1.907-8.54l-7.042 1.886.183.183a22.986 22.986 0 0 0-10.697-2.628c-3.75 0-7.29.9-10.423 2.484l-6.916-1.853-4.125-1.104c5.705-5.21 13.29-8.396 21.608-8.396 8.277 0 15.832 3.156 21.527 8.325l-4.115 1.104zM39.268 49.69a23.04 23.04 0 0 0-2.476 10.406c0 3.812.928 7.408 2.566 10.578l-1.872 6.988-1.106 4.123c-5.21-5.707-8.394-13.29-8.394-21.606 0-8.277 3.156-15.834 8.323-21.53l1.104 4.12 1.855 6.92zm3.371 33.121l7.245-1.883a23.02 23.02 0 0 0 10.023 2.28c3.694 0 7.183-.871 10.282-2.411l7.345 1.945 4.125 1.107c-5.705 5.208-13.29 8.39-21.604 8.39-8.281 0-15.836-3.153-21.531-8.322l4.115-1.106zm38.059-12.613a23.043 23.043 0 0 0 2.32-10.102c0-3.648-.846-7.097-2.353-10.165l1.95-7.237 1.105-4.123c5.21 5.705 8.392 13.29 8.392 21.604 0 8.28-3.154 15.835-8.321 21.531l-1.104-4.12-1.99-7.388zM82.83 8.3a1.194 1.194 0 1 1 0 2.392 1.193 1.193 0 0 1-1.194-1.196c0-.661.532-1.196 1.194-1.196zm-7.672 1.596a1.194 1.194 0 1 1 0 2.388 1.194 1.194 0 0 1 0-2.388zm-7.674 1.593a1.196 1.196 0 1 1 0 2.392 1.196 1.196 0 0 1 0-2.392zm-7.798 1.592a1.195 1.195 0 1 1-1.196 1.196c0-.662.534-1.196 1.196-1.196zm-7.674-1.592a1.196 1.196 0 1 1 0 2.392 1.196 1.196 0 0 1 0-2.392zM44.34 9.896a1.194 1.194 0 1 1 .002 2.389 1.194 1.194 0 0 1-.002-2.39zM36.665 8.3a1.196 1.196 0 1 1 0 2.392 1.196 1.196 0 0 1 0-2.392zm-2.69 17.914C41.4 20.472 50.462 17.36 60 17.36c9.54 0 18.604 3.114 26.027 8.858.28.83.721 3.185-1.943 5.89-6.467-5.546-14.865-8.903-24.032-8.903-9.321 0-17.84 3.468-24.35 9.175-3.204-3.333-1.72-6.116-1.72-6.116l-.005-.05zm-2.089 4.446a1.793 1.793 0 1 1-1.793 1.792c0-.99.801-1.792 1.793-1.792zM20.555 20.222a2.14 2.14 0 0 1 3.023-.017l4.652 4.6a2.14 2.14 0 0 1-3.008 3.04l-4.65-4.6a2.141 2.141 0 0 1-.017-3.023zm-6.157 32.859a1.194 1.194 0 1 1-1.202-1.188 1.194 1.194 0 0 1 1.202 1.188zm-1.64-7.664a1.194 1.194 0 1 1-2.389.018 1.194 1.194 0 0 1 2.389-.018zm-2.845-8.85a1.196 1.196 0 1 1 .015 2.391 1.196 1.196 0 0 1-.015-2.391zm.306 48.552a1.196 1.196 0 0 1-.016-2.391 1.196 1.196 0 0 1 .016 2.39zm1.543-7.681a1.195 1.195 0 1 1-.016-2.392 1.195 1.195 0 0 1 .016 2.392zm1.546-7.685a1.194 1.194 0 1 1-.019-2.389 1.194 1.194 0 0 1 .019 2.389zm1.545-7.682a1.194 1.194 0 1 1-.015-2.388 1.194 1.194 0 0 1 .015 2.388zm11.009-27.636c.505-.219 3.058-1.109 6.05 1.79-5.504 6.457-8.834 14.822-8.834 23.95 0 9.356 3.495 17.909 9.246 24.427-2.504 2.45-4.707 2.249-5.67 1.982-6.024-7.528-9.298-16.805-9.298-26.585 0-9.342 2.987-18.225 8.506-25.564zm2.485 60.09l-4.6 4.647a2.138 2.138 0 1 1-3.04-3.006l4.6-4.648a2.138 2.138 0 1 1 3.04 3.006zm3.791-4.464a1.793 1.793 0 1 1 0-3.587 1.793 1.793 0 0 1 0 3.587zm4.527 21.512a1.196 1.196 0 1 1 0-2.392 1.196 1.196 0 0 1 0 2.392zm7.674-1.596a1.196 1.196 0 1 1 1.196-1.194c0 .662-.537 1.194-1.196 1.194zm7.673-1.591a1.196 1.196 0 1 1 .001-2.392 1.196 1.196 0 0 1 0 2.392zm7.797-1.596a1.192 1.192 0 1 1 0-2.387 1.193 1.193 0 1 1 0 2.387zm7.673 1.596a1.196 1.196 0 1 1 .004-2.392 1.196 1.196 0 0 1-.004 2.392zm7.674 1.591a1.196 1.196 0 1 1 1.196-1.194c0 .662-.535 1.194-1.196 1.194zm7.674 1.596a1.194 1.194 0 0 1-1.194-1.198c0-.66.532-1.193 1.194-1.193.66 0 1.193.532 1.193 1.193 0 .662-.532 1.198-1.193 1.198zm3.706-18.19c-7.518 5.995-16.78 9.257-26.537 9.257-9.48 0-18.488-3.075-25.887-8.752-.234-1.051-.269-3.15 2.065-5.51 6.447 5.466 14.778 8.767 23.874 8.767 9.317 0 17.84-3.466 24.349-9.175 2.278 2.277 2.34 4.313 2.136 5.413zm1.797-3.574a1.79 1.79 0 0 1-1.794-1.791 1.79 1.79 0 0 1 1.794-1.792c.99 0 1.791.8 1.791 1.792a1.79 1.79 0 0 1-1.791 1.791zm11.36 9.214a2.138 2.138 0 0 1-3.023.019l-4.65-4.6a2.14 2.14 0 0 1-.02-3.026 2.137 2.137 0 0 1 3.026-.015l4.65 4.6c.842.828.85 2.18.017 3.022zm-6.124-12.72c-1.11.192-3.12.094-5.36-2.147l-.328.327c5.686-6.503 9.139-15.007 9.139-24.307 0-9.279-3.437-17.77-9.104-24.268 2.695-2.644 5.042-2.21 5.874-1.928 5.74 7.421 8.85 16.48 8.85 26.019 0 9.66-3.19 18.828-9.07 26.304zm10.696-25.656a1.199 1.199 0 0 1 1.236-1.155 1.2 1.2 0 0 1 1.157 1.234 1.202 1.202 0 0 1-1.236 1.157 1.203 1.203 0 0 1-1.157-1.236zm1.335 7.846a1.197 1.197 0 0 1 2.391.079 1.196 1.196 0 0 1-2.39-.079zm1.336 7.722a1.196 1.196 0 1 1 1.158 1.236 1.202 1.202 0 0 1-1.158-1.236zm2.495 8.958a1.2 1.2 0 0 1-1.157-1.236 1.2 1.2 0 0 1 1.236-1.157 1.198 1.198 0 0 1-.079 2.393zm1.53-46.14a1.194 1.194 0 1 1 .081-2.387 1.194 1.194 0 0 1-.08 2.387z" fill-rule="nonzero"/>
</symbol><symbol id="gas" viewBox="0 0 94 120">
    <title>
        Combined Shape
    </title>
    <path d="M81.973 7.555L53.389.252c-13.725-2.519-15.991 15.74-26.065 15.74-2.014 0-4.659-1.26-5.162-5.415H0v88.017C0 116.726 5.163 120 18.258 120h57.419c9.821 0 17.754 0 17.754-17.503V24.554c.126-2.518.378-13.851-11.458-16.999zm-9.066 88.772c.755.63.755 1.763 0 2.519-.63.755-1.763.755-2.519 0L46.842 75.299 23.295 98.846c-.63.755-1.763.755-2.519 0-.755-.63-.755-1.763 0-2.519l23.547-23.546-23.547-23.547c-.755-.63-.755-1.763 0-2.518.63-.756 1.763-.756 2.519 0l23.547 23.546 23.546-23.546c.63-.756 1.763-.756 2.519 0 .755.63.755 1.762 0 2.518L49.36 72.781l23.547 23.546zm10.325-76.81c-.63 2.645-3.274 4.282-5.918 3.778l-25.562-5.792c-2.644-.63-4.28-3.274-3.777-5.919.503-2.518 2.896-4.155 5.414-3.777.378 0 1.26.252 1.511.378l1.385 1.385c.504.378 1.134.63 1.763.378l1.637-.504c.63-.252 1.26-.126 1.637.378l1.511 1.385c.504.377 1.133.503 1.637.377l1.637-.503c.63-.252 1.385 0 1.763.503l.755.756c.378.504 1.134.63 1.763.504l1.511-.378c.504-.126 1.134 0 1.637.378l1.26 1.007c.503.378 1.133.504 1.636.378l1.637-.504c.378-.126.63-.126 1.008 0 3.525.504 4.659 3.274 4.155 5.792zM22.162 1.89v6.044H.126V1.385C.126.504.63 0 1.51 0c0 0 15.362.126 19.014 0 .63 0 1.637.252 1.637 1.889z" fill-rule="nonzero"/>
</symbol><symbol id="rearbrakes" viewBox="0 0 120 120">
    <title>
        Shape
    </title>
    <path d="M60 0C26.863 0 0 26.863 0 60s26.863 59.998 60 59.998S120 93.137 120 60 93.137 0 60 0zm51.547 43.725a3.028 3.028 0 1 1 1.55 5.85 3.028 3.028 0 0 1-1.55-5.85zm-.948 10.304a2.284 2.284 0 0 1-4.415 1.172 2.284 2.284 0 1 1 4.415-1.172zm-6.956-25.733a3.026 3.026 0 1 1 3.354 5.038 3.026 3.026 0 0 1-3.354-5.038zM90.179 78.668a1.883 1.883 0 0 1 2.598-.597 1.882 1.882 0 0 1 .596 2.597 1.88 1.88 0 0 1-2.597.597 1.882 1.882 0 0 1-.597-2.597zm.567-6.37l-3.095 5.008-.006-.003-3.171 5.094c5.357 3.722 2.87 7.632 1.63 9.073a40.68 40.68 0 0 1-12.225 7.012l.02-.023s-7.188 2.237-7.675-5.948l-5.998.051v.004l-5.889.034c-.36 8-7.377 6.152-7.706 6.06a40.55 40.55 0 0 1-12.528-7.015c-1.162-1.274-4.118-5.356 1.474-9.246l-3.173-5.094-.003.003-3.095-5.008c-7.183 3.953-9.194-3.434-9.194-3.434l-.023.082a41.441 41.441 0 0 1-.508-15.17c.493-1.625 2.5-6.304 8.722-3.449l2.776-5.319h-.004l2.74-5.21c-7.054-4.18-1.71-9.663-1.71-9.663l-.04.011a40.673 40.673 0 0 1 14.482-8.776v.001s7.216-2.153 7.604 6.038l5.997.017v-.002l5.89.038c.435-7.664 6.882-6.205 7.707-5.988a40.672 40.672 0 0 1 14.332 8.813c.791.911 4.516 5.741-1.85 9.511l2.742 5.21h-.004l2.776 5.32c5.85-2.689 7.976 1.295 8.617 3.13a41.438 41.438 0 0 1-.472 15.547c-.31.991-2.542 6.924-9.14 3.29zM58.208 97.343a1.884 1.884 0 1 1 3.768-.052 1.884 1.884 0 0 1-3.768.052zM20.774 86.37a2.28 2.28 0 0 1 3.23.022 2.278 2.278 0 0 1-.025 3.225 2.278 2.278 0 0 1-3.228-.023 2.277 2.277 0 0 1 .023-3.224zm6.502-8.3a1.885 1.885 0 1 1 2.001 3.195 1.885 1.885 0 0 1-2.001-3.195zm1.345-34.55a1.886 1.886 0 0 1-3.348-1.737 1.886 1.886 0 0 1 3.348 1.737zm31.725-22.733a1.885 1.885 0 1 1 .001 3.769 1.885 1.885 0 0 1 0-3.77zm33.626 23.54a1.884 1.884 0 1 1-1.733-3.346 1.885 1.885 0 0 1 1.733 3.346zm3.17-16.148a2.285 2.285 0 0 1-3.62-2.787 2.284 2.284 0 1 1 3.62 2.787zm-5.95-11.946a3.025 3.025 0 0 1 4.245-.554 3.028 3.028 0 0 1 .555 4.244 3.029 3.029 0 0 1-4.246.553 3.028 3.028 0 0 1-.553-4.243zm-7.614-.915a2.281 2.281 0 0 1 1.425 2.897 2.283 2.283 0 1 1-1.425-2.897zM75.524 8.82a3.025 3.025 0 0 1 3.839-1.891 3.026 3.026 0 1 1-1.948 5.731 3.025 3.025 0 0 1-1.89-3.84zm-7.506 1.588a2.284 2.284 0 1 1-.002 4.567 2.284 2.284 0 0 1 .002-4.567zm-6.69-6.584a3.027 3.027 0 1 1-.001 6.054 3.027 3.027 0 0 1 0-6.054zM49.079 11.34c1.17-.472 2.5.1 2.97 1.269a2.287 2.287 0 0 1-1.267 2.971 2.285 2.285 0 0 1-1.702-4.24zm-8.662-3.618a3.024 3.024 0 0 1 3.935 1.68 3.024 3.024 0 0 1-1.681 3.936 3.024 3.024 0 1 1-2.254-5.616zM34.075 17.75a2.281 2.281 0 0 1 3.218.245 2.282 2.282 0 1 1-3.462 2.973 2.283 2.283 0 0 1 .244-3.218zm-9.365-.638a3.027 3.027 0 0 1 3.943 4.594 3.024 3.024 0 0 1-4.266-.325 3.026 3.026 0 0 1 .323-4.269zm-2.774 11.54a2.284 2.284 0 0 1 3.932 2.322 2.285 2.285 0 0 1-3.127.805 2.285 2.285 0 0 1-.805-3.128zm-9.07 2.411a3.025 3.025 0 1 1 5.213 3.078 3.028 3.028 0 0 1-5.212-3.078zm2.645 27.301a2.284 2.284 0 0 1-4.533.56 2.282 2.282 0 0 1 1.988-2.544 2.28 2.28 0 0 1 2.545 1.984zM6.144 48.086a3.025 3.025 0 1 1 5.924 1.235 3.025 3.025 0 1 1-5.924-1.235zM5.262 66.37a3.028 3.028 0 0 1 2.632-3.377c1.66-.2 3.171.978 3.373 2.639a3.022 3.022 0 0 1-2.635 3.368 3.022 3.022 0 0 1-3.37-2.63zm9.09 18.995a3.026 3.026 0 1 1-2.635-5.449 3.026 3.026 0 0 1 2.635 5.45zm2.024-9.233a2.29 2.29 0 0 1-3.05-1.063 2.287 2.287 0 0 1 1.062-3.052 2.284 2.284 0 1 1 1.988 4.115zm-.652-30.55a2.286 2.286 0 0 1-1.771-2.701 2.288 2.288 0 0 1 2.701-1.77 2.287 2.287 0 0 1 1.771 2.704 2.285 2.285 0 0 1-2.701 1.767zm9.313 53.434a3.028 3.028 0 0 1-4.25-4.31 3.03 3.03 0 0 1 4.282.03 3.03 3.03 0 0 1-.032 4.28zm7.42 1.95a2.286 2.286 0 0 1 2.05-4.087 2.286 2.286 0 0 1-2.049 4.086zm7.09 7.534a3.023 3.023 0 0 1-4.061 1.345 3.027 3.027 0 1 1 4.061-1.345zm10.227-2.496a2.285 2.285 0 0 1-2.574 1.95 2.286 2.286 0 0 1-1.95-2.575 2.284 2.284 0 0 1 4.523.626zm6.566 6.799a3.025 3.025 0 1 1-5.996-.826 3.024 3.024 0 0 1 3.411-2.585 3.03 3.03 0 0 1 2.585 3.411zm7.069-2.98a2.282 2.282 0 1 1 1.809-2.675 2.285 2.285 0 0 1-1.81 2.674zm7.816 5.194a3.025 3.025 0 0 1-1.145-5.94 3.02 3.02 0 0 1 3.544 2.396 3.024 3.024 0 0 1-2.399 3.544zm8.13-8.645a2.282 2.282 0 1 1-2.265-3.965 2.282 2.282 0 0 1 2.265 3.965zm9.074 2.404a3.026 3.026 0 1 1-3-5.258 3.026 3.026 0 1 1 3 5.258zm4.913-10.805a2.284 2.284 0 0 1-3.222.198 2.282 2.282 0 0 1 3.023-3.418 2.277 2.277 0 0 1 .2 3.22zm9.363-.646a3.025 3.025 0 0 1-4.27.26 3.023 3.023 0 0 1-.263-4.268 3.024 3.024 0 0 1 4.272-.265 3.024 3.024 0 0 1 .261 4.273zm1.174-11.811a2.283 2.283 0 1 1-4.214-1.76 2.283 2.283 0 0 1 4.214 1.76zm-1.615-44.627a2.283 2.283 0 1 1 3.802-2.528 2.283 2.283 0 0 1-3.802 2.528zm3.024 29.131a2.284 2.284 0 0 1 2.433-2.125 2.284 2.284 0 1 1-.312 4.558 2.285 2.285 0 0 1-2.12-2.433zm7.248 11.866a3.026 3.026 0 1 1-5.587-2.334 3.026 3.026 0 0 1 5.587 2.334zm1.107-14.965a3.03 3.03 0 0 1-2.814-3.228 3.026 3.026 0 1 1 6.038.417 3.03 3.03 0 0 1-3.224 2.811z" fill-rule="nonzero"/>
</symbol><symbol id="screwdriver" viewBox="0 0 120 120">
    <title>
        Shape
    </title>
    <path d="M104.997 7.5l-3.75 7.5-52.499 52.498-3.75-3.75-3.75 3.75h-3.75L3.75 101.247C1.5 103.122 0 106.077 0 109.452 0 115.076 4.924 120 10.548 120c3.375 0 6.33-1.5 8.205-3.75l33.75-33.749v-3.75l3.749-3.75-3.75-3.75L105 18.754l7.5-3.75 7.5-11.25-3.75-3.75L104.997 7.5z" fill-rule="nonzero"/>
</symbol><symbol id="trench" viewBox="0 0 120 112">
    <title>
        Shape
    </title>
    <path d="M112.22 11.28a6.3 6.3 0 0 0-5.44-1.076c-.328.086-.68.008-.95-.2l-9.773-7.432C90.517-1.64 82.61-.566 78.396 4.974L.25 107.727a1.23 1.23 0 0 0 .235 1.723l3.065 2.331a1.23 1.23 0 0 0 1.723-.235l77.17-101.468A7.905 7.905 0 0 1 93.52 8.571l8.155 6.202c.297.227.47.588.436.96a6.305 6.305 0 0 0 2.465 5.599l7.619 5.794a.41.41 0 0 0 .572-.078l7.15-9.401a.41.41 0 0 0-.078-.573l-7.62-5.793z" fill-rule="nonzero"/>
</symbol><symbol id="ukraine" viewBox="0 0 500 488">
    <title>
        ukraine
    </title>
    <g fill-rule="evenodd">
        <path d="M474.991 339.343l-25.29-2.903-.058.123 18.071 17.996-3.7 7.74-29.44-14.138 2.83-5.916 8.775 4.214 12.73 6.811.077-.11-18.017-18.371 1.9-3.972 25.474 2.567.038-.131-13.191-5.638-8.775-4.214 2.83-5.916 29.439 14.138-3.693 7.72M423.683 377.633l6.87-9.188-4.303-6.012 3.966-5.304 19.389 28.627-4.02 5.376-32.833-10.646 3.966-5.304 6.965 2.45zm10.01-4.808l-4.934 6.599 12.684 4.47.08-.108-7.83-10.961zM406.527 387.938l22.38 23.818-8.163 7.701c-2.905 2.742-6.173 4.071-9.804 3.989-3.629-.084-6.81-1.581-9.547-4.492l-3.704-3.943c-2.746-2.923-4.046-6.197-3.9-9.822.146-3.625 1.67-6.809 4.577-9.55l8.161-7.701zm14.155 24.635l-15.463-16.456-3.15 2.972c-1.708 1.612-2.504 3.452-2.389 5.521.118 2.068 1.051 4.034 2.801 5.898l3.73 3.971c1.731 1.842 3.623 2.882 5.677 3.123 2.053.241 3.935-.445 5.643-2.056l3.151-2.973zM370.795 435.945l11.225-7.551-5.185-7.743-13.125 8.829-2.811-4.199 18.56-12.484 18.194 27.163-18.525 12.46-2.81-4.197 13.088-8.804-4.574-6.827-11.226 7.55-2.81-4.197M312 447.603l6.261-1.918 9.543 31.286-6.26 1.919L312 447.603M273.191 455.191l6.446-1.02 16.506 20.017.13-.042-3.482-22.061 6.467-1.024 5.098 32.313-6.467 1.025-16.501-19.996-.13.042 3.478 22.039-6.445 1.02-5.1-32.313M192.58 482.295l4.263-21.28c.72-3.599 2.464-6.135 5.23-7.611 2.765-1.476 6.068-1.826 9.907-1.054 3.825.77 6.718 2.367 8.679 4.794 1.96 2.427 2.58 5.44 1.859 9.037l-4.264 21.28-6.44-1.296 4.26-21.264c.423-2.112.176-3.806-.742-5.083-.919-1.276-2.367-2.114-4.345-2.512-2.007-.404-3.688-.2-5.04.611-1.35.812-2.24 2.283-2.666 4.41l-4.261 21.264-6.44-1.296M172.575 456.298l3.384 1.322 4.95-12.729 6.1 2.382-11.853 30.481-6.1-2.38 4.844-12.458-2.653-1.036-12.909 9.308-7.458-2.913 15.757-10.196-4.718-20.604 7.437 2.904 3.219 15.919M141.024 441.359l6.757-11.187 5.6 3.396-16.904 27.988-10.53-6.388c-3.184-1.932-5.234-4.17-6.154-6.713-.916-2.546-.59-5.118.98-7.72.876-1.448 2.003-2.462 3.385-3.042 1.382-.58 2.994-.75 4.84-.506-1.356-1.487-2.05-3.02-2.084-4.599-.033-1.578.457-3.207 1.47-4.886l1.243-2.056a11.9 11.9 0 0 0 1.164-2.643c.303-.98.323-1.831.06-2.551l.243-.403 5.773 3.501c.265.721.183 1.608-.245 2.662a20.15 20.15 0 0 1-1.417 2.869l-1.196 1.981c-.844 1.396-1.12 2.713-.827 3.949.292 1.237 1.13 2.274 2.51 3.113l5.332 3.235zm-2.612 4.324l-4.834-2.933c-1.573-.953-2.947-1.33-4.123-1.135-1.177.197-2.16.95-2.949 2.256-.774 1.282-1.003 2.534-.685 3.76.317 1.226 1.23 2.296 2.738 3.211l4.93 2.99 4.923-8.149zM104.205 407.7l8.63 7.552 6.303-3.853 4.982 4.36-29.933 17.238-5.05-4.417 13.044-32.018 4.982 4.36-2.958 6.777zm4.037 10.363l-6.198-5.424-5.395 12.341.101.089 11.492-7.006zM90.564 384.637l4.318 4.932-24.54 21.575-4.317-4.932 24.539-21.575M67.689 352.287l3.579 5.467-11.42 23.311.092.1 18.634-12.252 3.592 5.486-27.294 17.947-3.592-5.486 11.401-23.298-.093-.1-18.614 12.24-3.58-5.468 27.295-17.947M39.95 328.658l5.409 12.418 8.527-3.732-6.323-14.516 4.623-2.023 8.944 20.53-29.92 13.089-8.924-20.49 4.623-2.022 6.305 14.476 7.522-3.29-5.41-12.417 4.624-2.023M26.142 146.183l25.255 3.193.06-.121-17.864-18.204 3.79-7.697 29.275 14.476-2.897 5.883-8.726-4.315-12.65-6.956-.081.11L60.11 151.13l-1.944 3.948-25.445-2.86-.038.132 13.126 5.789 8.726 4.315-2.896 5.883-29.277-14.475 3.78-7.678M77.88 108.492l-6.974 9.11 4.234 6.059-4.028 5.259-19.058-28.848 4.081-5.33 32.71 11.023-4.027 5.258-6.938-2.53zm-10.064 4.693l5.009-6.542-12.63-4.616-.083.108 7.704 11.05zM95.151 98.388L73.045 74.314l8.25-7.606c2.937-2.71 6.22-4 9.849-3.876 3.628.124 6.793 1.658 9.495 4.6l3.66 3.986c2.712 2.954 3.974 6.243 3.788 9.866-.189 3.623-1.75 6.788-4.686 9.497l-8.25 7.607zM81.28 73.592l15.273 16.633 3.183-2.937c1.727-1.592 2.544-3.423 2.452-5.493-.093-2.07-1.005-4.047-2.734-5.93l-3.685-4.013c-1.71-1.86-3.59-2.924-5.639-3.189-2.05-.264-3.94.4-5.667 1.993l-3.183 2.936zM131.438 50.782l-11.31 7.423 5.098 7.8 13.223-8.679 2.764 4.23-18.7 12.273-17.885-27.368 18.662-12.249 2.764 4.23-13.187 8.654 4.497 6.88 11.31-7.424 2.764 4.23M190.35 39.802l-6.283 1.847-9.185-31.393 6.282-1.846 9.186 31.392M229.252 32.658l-6.456.947-16.277-20.208-.13.042 3.23 22.1-6.479.95-4.73-32.37 6.479-.95 16.273 20.183.13-.04-3.226-22.077 6.456-.947 4.73 32.37M310.167 6.485l-4.506 21.23c-.763 3.59-2.534 6.106-5.317 7.55-2.781 1.443-6.088 1.758-9.919.94-3.815-.812-6.69-2.444-8.623-4.893-1.933-2.449-2.519-5.467-1.756-9.057l4.506-21.23 6.426 1.37-4.503 21.213c-.448 2.107-.22 3.804.684 5.09.904 1.288 2.342 2.142 4.315 2.562 2.004.427 3.685.243 5.046-.553 1.363-.796 2.267-2.256 2.718-4.379l4.503-21.214 6.426 1.37M329.859 32.701l-3.37-1.36-5.092 12.672-6.073-2.452 12.196-30.345 6.074 2.452-4.984 12.4 2.64 1.066 13.012-9.16 7.425 2.996-15.87 10.018 4.485 20.655-7.404-2.987-3.04-15.955M361.243 48l-6.884 11.107-5.562-3.461 17.225-27.79 10.456 6.509c3.162 1.97 5.187 4.23 6.076 6.784.888 2.556.533 5.125-1.068 7.708-.892 1.437-2.032 2.438-3.42 3.002-1.387.564-3.002.714-4.844.45 1.338 1.502 2.015 3.044 2.03 4.623.016 1.579-.493 3.202-1.527 4.868l-1.265 2.043c-.481.777-.88 1.653-1.196 2.63-.313.976-.343 1.825-.087 2.55l-.25.4-5.731-3.57c-.256-.722-.165-1.608.274-2.658.44-1.048.924-2 1.452-2.853l1.22-1.965c.858-1.386 1.148-2.7.87-3.94-.278-1.24-1.102-2.288-2.474-3.14l-5.295-3.298zm2.663-4.295l4.8 2.988c1.561.971 2.93 1.366 4.11 1.183 1.177-.183 2.169-.924 2.973-2.222.788-1.272 1.032-2.523.729-3.752-.303-1.23-1.203-2.31-2.702-3.242l-4.893-3.047-5.017 8.092zM397.679 82.082l-8.544-7.65-6.346 3.778-4.933-4.416 30.13-16.894 4.999 4.477-13.411 31.865-4.931-4.417 3.036-6.743zm-3.92-10.409l6.136 5.496 5.537-12.28-.1-.09-11.573 6.874zM411.059 105.305l-4.26-4.981 24.783-21.292 4.262 4.98-24.785 21.293M433.559 137.903l-3.517-5.507 11.683-23.18-.091-.1-18.77 12.04-3.53-5.528 27.495-17.635 3.529 5.526-11.664 23.167.092.101 18.752-12.026 3.516 5.507-27.495 17.635M461.278 161.504l-5.463-12.392-8.511 3.768 6.387 14.489-4.614 2.043-9.034-20.491 29.86-13.22 9.016 20.45-4.615 2.043-6.369-14.45-7.506 3.323 5.464 12.394-4.615 2.043M249.165 250.017s-6.548 22.857-17.007 37.789c3.91 2.396 17.007 10.784 17.007 10.784s13.098-8.388 17.007-10.784c-10.459-14.932-17.007-37.79-17.007-37.79zm-7.653 82.659h-15.306s1.668 16.42 15.306 28.121v-28.121zm-17.857-13.635h17.857s-.576-15.57-15.515-17.895c-1.268 4.041-2.342 8.948-2.342 17.895zM210.9 298.256c-3.106 0-23.583-2.85-27.756-20.97h-7.959v41.755h32.61s0-11.404 3.105-20.785zM175.185 160.54s13.948 15.89 17.99 34.555c2.224 17.185 6.67 50.633 6.67 50.633s-13.34 5.172-16.372 17.923h-8.288V160.54zm82.483 172.136h15.306s-1.668 16.42-15.306 28.121v-28.121zm17.858-13.635h-17.858s.577-15.568 15.516-17.895c1.268 4.041 2.342 8.948 2.342 17.895zm11.904-20.785c3.106 0 23.584-2.852 27.757-20.97h7.958v41.755h-32.61s0-11.405-3.105-20.785zm36.565-137.716s-13.947 15.89-17.989 34.555c-2.224 17.185-6.671 50.632-6.671 50.632s13.341 5.174 16.373 17.924h8.287V160.54zm-74.405-50.278c-10.842 11.174-10.99 25.168-10.99 27.747 0 14.822 2.079 41.154 2.079 69.971 0 45.115-23.27 75.128-23.27 75.128s-.395.737-5.149.737c-4.752 0-15.05-3.59-15.05-14.178 0-10.589 12.575-13.534 14.952-13.534 2.376 0 3.564.368 3.564.368s-2.377-19.335-7.723-62.975c-10.398-46.68-48.124-62.975-48.124-62.975v201.906h50.302s3.664 28.45 30.498 46.588c0 0 8.515 6.812 8.911 9.021.396-2.21 8.913-9.021 8.913-9.021C285.336 360.907 289 332.457 289 332.457h50.301V130.551s-37.726 16.296-48.122 62.975c-5.347 43.64-7.724 62.975-7.724 62.975s1.188-.368 3.565-.368c2.376 0 14.951 2.945 14.951 13.534 0 10.588-10.298 14.179-15.05 14.179-4.753 0-5.15-.738-5.15-.738s-23.268-30.013-23.268-75.127c0-28.818 2.079-55.15 2.079-69.972 0-2.579-.15-16.573-10.992-27.747z"/>
        <g>
            <path d="M16.776 262.477l8.363-8.38 8.361 8.38-8.361 8.38-8.363-8.38zm0-33.518l8.363-8.38 8.361 8.38-8.361 8.38-8.363-8.38zm0 16.76l8.363-8.38 8.361 8.38-8.361 8.379-8.363-8.38zm16.724 0l8.361-8.38 8.363 8.38-8.363 8.379-8.361-8.38zm-33.446 0l8.361-8.38 8.361 8.38-8.361 8.379-8.361-8.38z"/>
        </g>
        <g>
            <path d="M16.776 262.477l8.363-8.38 8.361 8.38-8.361 8.38-8.363-8.38zm0-33.518l8.363-8.38 8.361 8.38-8.361 8.38-8.363-8.38zm0 16.76l8.363-8.38 8.361 8.38-8.361 8.379-8.363-8.38zm16.724 0l8.361-8.38 8.363 8.38-8.363 8.379-8.361-8.38zm-33.446 0l8.361-8.38 8.361 8.38-8.361 8.379-8.361-8.38z"/>
        </g>
        <g>
            <path d="M465.756 262.477l8.362-8.38 8.362 8.38-8.362 8.38-8.362-8.38zm0-33.518l8.362-8.38 8.362 8.38-8.362 8.38-8.362-8.38zm0 16.76l8.362-8.38 8.362 8.38-8.362 8.379-8.362-8.38zm16.724 0l8.361-8.38 8.362 8.38-8.362 8.379-8.361-8.38zm-33.447 0l8.362-8.38 8.361 8.38-8.361 8.379-8.362-8.38z"/>
        </g>
        <g>
            <path d="M465.756 262.477l8.362-8.38 8.362 8.38-8.362 8.38-8.362-8.38zm0-33.518l8.362-8.38 8.362 8.38-8.362 8.38-8.362-8.38zm0 16.76l8.362-8.38 8.362 8.38-8.362 8.379-8.362-8.38zm16.724 0l8.361-8.38 8.362 8.38-8.362 8.379-8.361-8.38zm-33.447 0l8.362-8.38 8.361 8.38-8.361 8.379-8.362-8.38z"/>
        </g>
    </g>
</symbol><symbol id="wrench" viewBox="0 0 120 113">
    <title>
        Shape
    </title>
    <path d="M15.482 111.154c3.523-1.816 5.079-4.833 6.405-8.3 1.818-4.805 5.187-7.975 8.938-11.398 4.604-4.206 9.21-8.414 13.815-12.618 14.253-13.01 28.504-26.025 42.756-39.04l3.606-3.292c5.604-5.116 11.13-7.71 18.702-8.769 8.113-1.134 10.706-9.038 10.245-16.208-.145-2.449-.893-5.537-2.668-2.345l-3.623 6.525c-1.818 3.281-7.65 1.312-9.922-.473-.714-.563-3.918-3.633-3.278-4.696.35-.58.7-1.16 1.052-1.74l4.141-6.862c1.275-2.114-.307-2.332-2.488-1.45-4.12 1.626-7.845 4.102-10.553 7.54-2.306 2.93-1.866 6.6-2.815 10.036-1.289 4.675-4.124 8.009-7.646 11.275a371420.077 371420.077 0 0 0-58.154 53.965c-3.654 3.389-7.392 6.015-12.21 7.7-4.49 1.567-8.355 2.233-10.664 6.725-1.996 3.88-1.332 8.926 2.04 11.961 3.552 3.135 8.094 3.343 12.321 1.464zM6.86 109.33l-2.589-2.032-1.509-2.872-.17-3.216 1.2-3.003 2.361-2.276 3.11-1.15 3.328.173 2.968 1.466 2.093 2.504.86 3.112-.529 3.182-1.817 2.7-2.797 1.75-3.294.5-3.215-.838z" fill-rule="nonzero"/>
</symbol></svg>