<?xml version="1.0" encoding="UTF-8"?>
<svg width="97px" height="120px" viewBox="0 0 97 120" version="1.1" xmlns="http://www.w3.org/2000/svg" xmlns:xlink="http://www.w3.org/1999/xlink">
    <!-- Generator: Sketch 42 (36781) - http://www.bohemiancoding.com/sketch -->
    <title>Combined Shape</title>
    <desc>Created with Sketch.</desc>
    <defs></defs>
    <g id="Page-1" stroke="none" stroke-width="1" fill="none" fill-rule="evenodd">
        <g id="sticker-5" transform="translate(-77.000000, -115.000000)" fill-rule="nonzero" fill="#FFFFFF">
            <g id="Group" transform="translate(45.000000, 45.000000)">
                <path d="M128.470515,150.156638 C128.53357,150.002502 128.593623,149.847616 128.644418,149.689476 L128.644418,156.302054 C128.644418,158.167197 126.609875,161.219137 123.388286,162.914631 C121.575188,163.868972 118.579798,166.273841 110.50243,168.193783 L110.50243,179.361124 C110.50243,179.361124 112.282499,180.293696 112.028275,181.226268 C111.849868,181.880595 111.624169,182.491133 110.841479,183.430461 C109.573862,184.951801 98.2799092,189.968722 80.1526846,190 C62.0254599,189.968722 50.7315071,184.951551 49.4638901,183.430461 C48.6812003,182.491133 48.4555014,181.880595 48.2770942,181.226268 C48.0226199,180.293696 49.8029388,179.361124 49.8029388,179.361124 L49.8029388,168.111211 C41.9822969,166.205281 39.0437073,163.85546 37.256132,162.914631 C34.0345429,161.219137 32,158.167197 32,156.302054 L32,149.689476 C32.0502943,149.847616 32.1105975,150.002502 32.173653,150.156638 L45.3385046,80.4932472 C45.3009715,80.4997529 45.2626877,80.5057582 45.2251547,80.5122639 L45.2251547,74.7474337 C45.2251547,73.0519395 47.5989966,72.2041924 49.1248413,71.8651437 C50.6506859,71.5258447 66.2494323,70 80.1526846,70 L80.4917333,70 C94.3949856,70 109.993732,71.5260949 111.519577,71.8651437 C113.045421,72.2041924 115.419263,73.0519395 115.419263,74.7474337 L115.419263,80.5122639 C115.38173,80.5057582 115.343196,80.4997529 115.305663,80.4932472 L128.470515,150.156638 Z M98.3552255,78.8753214 C96.7933491,78.7985037 95.2587468,78.736449 93.7834467,78.6866551 L103.073634,160.404419 C104.697565,160.202491 106.329753,159.970537 107.941674,159.70205 L98.3552255,78.8753214 Z M89.4511288,78.5672999 C88.1539857,78.5392752 86.9454207,78.5200083 85.8534584,78.5069968 L90.302379,161.478115 C92.2320795,161.383282 94.3429397,161.251916 96.550385,161.071257 L89.4511288,78.5672999 Z M78.5757949,78.4792223 L76.4261505,161.688801 C78.2137258,161.724833 79.5201271,161.727585 80.1524343,161.727585 L80.4914831,161.727585 C81.1240406,161.727585 82.4301916,161.724582 84.2180171,161.688801 L82.0681225,78.4792223 C81.4881114,78.477721 81.0124422,78.477721 80.6611326,78.477721 L79.9827848,78.477721 C79.6314752,78.477721 79.1558061,78.477721 78.5757949,78.4792223 Z M74.7904591,78.5069968 C73.698747,78.5200083 72.4899318,78.5392752 71.1930389,78.5672999 L64.0937826,161.071257 C66.301228,161.251916 68.4120882,161.383282 70.3415385,161.478115 L74.7904591,78.5069968 Z M66.860721,78.6866551 C65.3851707,78.736449 63.8508185,78.7985037 62.2886919,78.8753214 L52.7022439,159.70205 C54.3141644,159.970286 55.9463527,160.202491 57.5702838,160.404419 L66.860721,78.6866551 Z M35.0391783,153.672486 C35.8151121,154.272265 36.7096504,154.826503 37.6995227,155.340206 L50.9757224,79.727072 C50.0449021,79.8284113 49.1320977,79.9377576 48.2445655,80.0561119 L35.0391783,153.672486 Z M46.8155562,158.520759 L58.4255375,79.0947648 C56.9820154,79.1883472 55.5372422,79.2964425 54.113988,79.4208021 L42.0826353,157.170319 C43.5679443,157.674013 45.1578454,158.122158 46.8155562,158.520759 Z M108.213163,179.784748 L108.213163,171.137628 C99.5660426,175.503475 83.6282474,175.503475 80.4914831,175.503475 L80.1524343,175.503475 C77.0156701,175.503475 61.0778749,175.503725 52.4307546,171.137628 L52.4307546,179.784748 C52.4307546,179.784748 60.7388261,184.786406 80.1524343,184.786406 L80.4914831,184.786406 C99.9050914,184.786406 108.213163,179.784748 108.213163,179.784748 Z M113.828361,158.520759 C115.486072,158.122158 117.075973,157.674013 118.561532,157.170319 L106.53018,79.4208021 C105.106675,79.2966927 103.661902,79.1883472 102.21863,79.0947648 L113.828361,158.520759 Z M122.944645,155.340206 C123.934267,154.826503 124.828805,154.272265 125.604989,153.672486 L112.399602,80.0561119 C111.51207,79.9377576 110.599266,79.8284113 109.668445,79.727072 L122.944645,155.340206 Z M79.4743368,178.258653 C79.4743368,177.792492 79.8556728,177.410906 80.3220838,177.410906 C80.7882446,177.410906 81.1698309,177.792492 81.1698309,178.258653 L81.1698309,182.921512 C81.1698309,183.387673 80.7882446,183.769259 80.3220838,183.769259 C79.855923,183.769259 79.4743368,183.387673 79.4743368,182.921512 L79.4743368,178.258653 Z M76.2527477,177.410906 C76.7189085,177.410906 77.1004948,177.792492 77.1004948,178.258653 L77.1004948,182.921512 C77.1004948,183.387673 76.7189085,183.769259 76.2527477,183.769259 C75.7865869,183.769259 75.4050007,183.387673 75.4050007,182.921512 L75.4050007,178.258653 C75.4050007,177.792492 75.7863367,177.410906 76.2527477,177.410906 Z M72.1836619,176.902458 C72.6498227,176.902458 73.0311587,177.283794 73.0314089,177.750205 L73.0314089,182.413064 C73.0314089,182.879225 72.6498227,183.260811 72.1836619,183.260811 C71.717501,183.260811 71.3359148,182.879225 71.3359148,182.413064 L71.3359148,177.750205 C71.3359148,177.284044 71.7172508,176.902458 72.1836619,176.902458 Z M68.1143257,176.39376 C68.5804866,176.39376 68.9620728,176.775096 68.9620728,177.241507 L68.9620728,181.904366 C68.9620728,182.370527 68.5804866,182.752113 68.1143257,182.752113 C67.6481649,182.752113 67.2665787,182.370527 67.2665787,181.904366 L67.2665787,177.241507 C67.2665787,176.775346 67.6479147,176.39376 68.1143257,176.39376 Z M64.0449896,175.885061 C64.5114007,175.885061 64.8927367,176.266647 64.8927367,176.732808 L64.8927367,181.395667 C64.8927367,181.861828 64.5111505,182.243415 64.0449896,182.243415 C63.5788288,182.243415 63.1972426,181.861828 63.1972426,181.395667 L63.1972426,176.732808 C63.1972426,176.266647 63.5785786,175.885061 64.0449896,175.885061 Z M59.9759038,174.867665 C60.4420646,174.867665 60.8236508,175.249251 60.8236508,175.715412 L60.8236508,180.378271 C60.8236508,180.844432 60.4420646,181.226018 59.9759038,181.226018 C59.509743,181.226018 59.1281567,180.844432 59.1281567,180.378271 L59.1281567,175.715412 C59.1281567,175.249251 59.5094927,174.867665 59.9759038,174.867665 Z M55.9065677,173.596044 C56.3727285,173.596044 56.7543147,173.97763 56.7543147,174.443791 L56.7543147,179.10665 C56.7543147,179.572811 56.3727285,179.954397 55.9065677,179.954397 C55.4404069,179.954397 55.0588206,179.572811 55.0588206,179.10665 L55.0588206,174.443791 C55.0588206,173.97763 55.4401566,173.596044 55.9065677,173.596044 Z M84.3911697,183.769259 C83.9250089,183.769259 83.5434226,183.387673 83.5434226,182.921512 L83.5434226,178.258653 C83.5434226,177.792492 83.9247587,177.410906 84.3911697,177.410906 C84.8573305,177.410906 85.2389168,177.792492 85.2389168,178.258653 L85.2389168,182.921512 C85.2389168,183.387673 84.8573305,183.769259 84.3911697,183.769259 Z M88.4605058,183.260561 C87.9940948,183.260561 87.6127587,182.879225 87.6127587,182.412814 L87.6127587,177.749955 C87.6127587,177.283794 87.9940948,176.902208 88.4605058,176.902208 C88.9266666,176.902208 89.3082529,177.283794 89.3082529,177.749955 L89.3082529,182.412814 C89.3082529,182.878975 88.9266666,183.260561 88.4605058,183.260561 Z M92.5298419,182.751863 C92.0634309,182.751863 91.6818446,182.370527 91.6820948,181.904116 L91.6820948,177.241256 C91.6820948,176.775096 92.0634309,176.393509 92.5298419,176.393509 C92.9960027,176.393509 93.377589,176.775096 93.377589,177.241256 L93.377589,181.904116 C93.377589,182.370276 92.9960027,182.751863 92.5298419,182.751863 Z M96.5989278,182.243415 C96.132767,182.243415 95.7511807,181.861828 95.7511807,181.395667 L95.7511807,176.732808 C95.7511807,176.266647 96.1325168,175.885061 96.5989278,175.885061 C97.0650886,175.885061 97.4466749,176.266647 97.4466749,176.732808 L97.4466749,181.395667 C97.4466749,181.861828 97.0650886,182.243415 96.5989278,182.243415 Z M100.668264,181.226018 C100.201853,181.226018 99.8205168,180.844432 99.8205168,180.378271 L99.8205168,175.715412 C99.8205168,175.249251 100.201853,174.867665 100.668264,174.867665 C101.134425,174.867665 101.516011,175.249251 101.516011,175.715412 L101.516011,180.378271 C101.516011,180.844432 101.134425,181.226018 100.668264,181.226018 Z M104.73735,179.954397 C104.271189,179.954397 103.889603,179.572811 103.889603,179.10665 L103.889603,174.443791 C103.889603,173.97763 104.270939,173.596044 104.73735,173.596044 C105.203511,173.596044 105.585097,173.97763 105.585097,174.443791 L105.585097,179.10665 C105.585097,179.572811 105.203511,179.954397 104.73735,179.954397 Z" id="Combined-Shape"></path>
            </g>
        </g>
    </g>
</svg>