<?xml version="1.0" encoding="UTF-8"?>
<svg width="32px" height="31px" viewBox="0 0 32 31" version="1.1" xmlns="http://www.w3.org/2000/svg" xmlns:xlink="http://www.w3.org/1999/xlink">
    <!-- Generator: Sketch 47.1 (45422) - http://www.bohemiancoding.com/sketch -->
    <title>close</title>
    <desc>Created with Sketch.</desc>
    <defs></defs>
    <g id="Page-1" stroke="none" stroke-width="1" fill="none" fill-rule="evenodd">
        <g id="noun_613965" transform="translate(0.000000, -1.000000)" fill="#000000">
            <path d="M13.921,16.711 L1.193,3.983 C0.911,3.702 0.753,3.32 0.753,2.922 C0.753,2.525 0.911,2.143 1.193,1.862 C1.474,1.58 1.856,1.422 2.253,1.422 C2.651,1.422 3.033,1.58 3.314,1.862 L16.042,14.59 L28.77,1.862 C29.051,1.58 29.433,1.422 29.831,1.422 C30.228,1.422 30.61,1.58 30.891,1.862 C31.173,2.143 31.331,2.525 31.331,2.922 C31.331,3.32 31.173,3.702 30.891,3.983 L18.163,16.711 L30.891,29.439 C31.173,29.72 31.331,30.102 31.331,30.5 C31.331,30.897 31.173,31.279 30.891,31.56 C30.61,31.842 30.228,32 29.831,32 C29.433,32 29.051,31.842 28.77,31.56 L16.042,18.832 L3.314,31.56 C3.033,31.842 2.651,32 2.253,32 C1.856,32 1.474,31.842 1.193,31.56 C0.911,31.279 0.753,30.897 0.753,30.5 C0.753,30.102 0.911,29.72 1.193,29.439 L13.921,16.711 Z" id="close"></path>
        </g>
    </g>
</svg>