<?xml version="1.0" encoding="UTF-8"?>
<svg width="120px" height="120px" viewBox="0 0 120 120" version="1.1" xmlns="http://www.w3.org/2000/svg" xmlns:xlink="http://www.w3.org/1999/xlink">
    <!-- Generator: Sketch 42 (36781) - http://www.bohemiancoding.com/sketch -->
    <title>Shape</title>
    <desc>Created with Sketch.</desc>
    <defs></defs>
    <g id="Page-1" stroke="none" stroke-width="1" fill="none" fill-rule="evenodd">
        <g id="sticker-6" transform="translate(-65.000000, -115.000000)" fill-rule="nonzero" fill="#FFFFFF">
            <g id="Group" transform="translate(45.000000, 45.000000)">
                <path d="M140,136.036811 L140,123.584507 L138.071988,123.0136 C136.757172,111.956846 132.357153,101.847758 125.758085,93.5686482 L126.694219,91.8443943 L117.890336,83.0385891 L116.125715,83.9977894 C107.806238,77.4563891 97.6644721,73.1255707 86.5942621,71.881878 L86.036811,70 L73.5845067,70 L73.0116776,71.9260897 C61.9568456,73.2428276 51.8458359,77.6409246 43.5667259,84.2399923 L41.842472,83.3038589 L33.0366668,92.1096641 L33.9958672,93.8742852 C27.4544668,102.19184 23.1255707,112.331683 21.881878,123.403816 L20,123.961267 L20,136.413571 L21.9280119,136.984478 C23.2447499,148.03931 27.6428468,158.15032 34.2419146,166.427507 L33.3038589,168.153684 L42.1096641,176.961411 L43.8742852,176.000288 C52.1937623,182.543611 62.3336057,186.872507 73.4057379,188.1162 L73.9612668,189.998078 L86.4154933,189.998078 L86.9844779,188.071988 C98.0431544,186.757172 108.154164,182.357153 116.431352,175.758085 L118.157528,176.696141 L126.961411,167.888414 L126.004133,166.123793 C132.545533,157.804315 136.874429,147.666394 138.118122,136.594262 L140,136.036811 Z M129.19506,114.259695 C129.85439,114.284685 130.369552,114.836369 130.350329,115.495699 C130.327262,116.155029 129.775578,116.672113 129.114326,116.652891 C128.456918,116.627901 127.939834,116.076217 127.959056,115.416887 C127.982123,114.755635 128.53573,114.238551 129.19506,114.259695 Z M127.347782,121.875631 C128.007112,121.898698 128.524196,122.450382 128.503052,123.109712 C128.479985,123.770964 127.9283,124.286126 127.26897,124.264981 C126.607718,124.243837 126.092556,123.692152 126.111779,123.0309 C126.136768,122.37157 126.68653,121.854486 127.347782,121.875631 Z M111.902542,94.720073 L116.502475,90.0701619 C117.334807,89.2282186 118.686145,89.2224518 119.528089,90.0509395 C120.366188,90.8832717 120.371954,92.2365323 119.545389,93.0746312 L114.943534,97.7264645 C114.113124,98.5664857 112.759864,98.5722524 111.921765,97.7437647 C111.079821,96.9133548 111.072132,95.5600942 111.902542,94.720073 Z M107.796626,100.313807 C108.788505,100.313807 109.590081,101.117305 109.590081,102.107261 C109.590081,103.09914 108.788505,103.900716 107.796626,103.900716 C106.808592,103.900716 106.005094,103.09914 106.005094,102.107261 C106.005094,101.117305 106.808592,100.313807 107.796626,100.313807 Z M79.9048489,145.28281 C71.5296266,145.28281 64.7152674,138.468451 64.7152674,130.095151 C64.7152674,121.718007 71.5296266,114.90557 79.9048489,114.90557 C88.2781489,114.90557 95.092508,121.718007 95.092508,130.095151 C95.0944303,138.468451 88.2800711,145.28281 79.9048489,145.28281 Z M80.3354318,150.622807 C79.5396223,151.051468 78.5458215,150.75352 78.1190831,149.957711 C77.6923447,149.161901 77.9902927,148.170023 78.7861022,147.743284 C79.5819117,147.316546 80.5737902,147.612571 80.9986064,148.408381 C81.4253448,149.202268 81.129319,150.194147 80.3354318,150.622807 Z M68.2175982,116.822048 C67.9580951,117.687058 67.0469508,118.177231 66.1800183,117.917728 C65.3169302,117.658225 64.8248354,116.747081 65.0843385,115.88207 C65.3457639,115.01706 66.2569081,114.524965 67.1238406,114.786391 C67.9869287,115.045894 68.4790235,115.957038 68.2175982,116.822048 Z M64.5960882,142.876159 C64.8555913,142.009227 65.7686578,141.520977 66.6336681,141.78048 C67.4986785,142.039983 67.988851,142.951127 67.7293479,143.816137 C67.4679225,144.68307 66.5587006,145.17132 65.691768,144.911817 C64.8248354,144.652314 64.3385074,143.739247 64.5960882,142.876159 Z M59.6770628,112.537364 L58.7082512,108.915854 L62.3297612,109.886588 L65.9512711,110.857321 L63.300495,113.51002 L60.6497189,116.160796 L59.6770628,112.537364 Z M60.0422894,128.307463 C60.8361767,127.878802 61.8299774,128.178673 62.2547936,128.974482 C62.6853765,129.768369 62.3855063,130.760248 61.5896968,131.186986 C60.7938873,131.613725 59.8020087,131.315777 59.3752703,130.523812 C58.9485319,129.72608 59.2464799,128.734202 60.0422894,128.307463 Z M60.7323754,144.277476 L63.3831515,146.928252 L66.0339276,149.579028 L62.4124177,150.54784 L58.7909078,151.520496 L59.7616416,147.897064 L60.7323754,144.277476 Z M79.4761882,109.565573 C80.2719977,109.13499 81.2638762,109.436782 81.6906146,110.230669 C82.1192753,111.026479 81.8194051,112.018357 81.0255178,112.445096 C80.2297083,112.873757 79.2378298,112.575809 78.8110914,111.779999 C78.3843529,110.98419 78.6803787,109.994233 79.4761882,109.565573 Z M95.2136095,117.310298 C94.9521842,118.175309 94.0429622,118.667404 93.1741074,118.405978 C92.3110193,118.146475 91.8208467,117.235331 92.0803498,116.368398 C92.3417752,115.503388 93.2509972,115.013215 94.1179297,115.272719 C94.9829401,115.536066 95.4731126,116.44721 95.2136095,117.310298 Z M94.7253592,144.30631 C94.4639339,145.169398 93.5527897,145.661493 92.6858571,145.398145 C91.822769,145.138642 91.3306742,144.227498 91.5901773,143.362487 C91.8516027,142.499399 92.7627469,142.007305 93.6296795,142.266808 C94.4927676,142.532077 94.9848623,143.439377 94.7253592,144.30631 Z M100.422894,147.814407 L101.391706,151.433995 L97.7701956,150.465183 L94.1486857,149.496372 L96.7994618,146.845596 L99.4521601,144.19482 L100.422894,147.814407 Z M99.7674083,131.878995 C98.9735211,132.309578 97.9797203,132.009707 97.5529819,131.21582 C97.1243212,130.420011 97.4241915,129.42621 98.220001,129.001394 C99.0158105,128.572733 100.007689,128.870681 100.434427,129.66649 C100.861166,130.4623 100.563218,131.452256 99.7674083,131.878995 Z M99.3695036,116.078139 L96.7168052,113.427363 L94.0660291,110.774665 L97.687539,109.803931 L101.310971,108.835119 L100.338315,112.454707 L99.3695036,116.078139 Z M97.4626364,107.539526 L90.4214523,109.425249 L90.6040655,109.607862 C87.4035273,107.931664 83.7666394,106.980153 79.9067711,106.980153 C76.1564708,106.980153 72.6176174,107.879764 69.4843577,109.463694 L62.5681196,107.610649 L58.4429814,106.507281 C64.1482051,101.296074 71.7333846,98.1109135 80.0509395,98.1109135 C88.3281273,98.1109135 95.8825508,101.26724 101.578163,106.436157 L97.4626364,107.539526 Z M59.2676246,119.688116 C57.6894613,122.815609 56.7917728,126.350618 56.7917728,130.095151 C56.7917728,133.906963 57.7202172,137.503484 59.3579701,140.673266 L57.4857033,147.660628 L56.3804123,151.783844 C51.1692056,146.076698 47.9859676,138.49344 47.9859676,130.177808 C47.9859676,121.90062 51.1422942,114.344274 56.3092892,108.648662 L57.412658,112.768033 L59.2676246,119.688116 Z M62.6392426,152.810322 L69.8841847,150.926522 C72.9136431,152.387429 76.3160171,153.206305 79.9067711,153.206305 C83.6013263,153.206305 87.0902014,152.335528 90.1888606,150.79581 L97.5337594,152.741122 L101.658898,153.848335 C95.9536739,159.055697 88.3684944,162.238935 80.054784,162.238935 C71.7737517,162.238935 64.2193282,159.084531 58.5237157,153.915613 L62.6392426,152.810322 Z M100.697775,140.19655 C102.181748,137.144024 103.017925,133.716661 103.017925,130.095151 C103.017925,126.44673 102.172137,122.998222 100.665097,119.930319 L102.614253,112.693066 L103.719544,108.56985 C108.930751,114.275073 112.112067,121.860253 112.112067,130.173963 C112.112067,138.453073 108.957663,146.009419 103.790667,151.705031 L102.687299,147.58566 L100.697775,140.19655 Z M102.829545,78.3002547 C103.490797,78.3002547 104.025181,78.8346389 104.025181,79.4958912 C104.025181,80.1571435 103.490797,80.6915277 102.829545,80.6915277 C102.168293,80.6915277 101.635831,80.1571435 101.635831,79.4958912 C101.635831,78.8346389 102.168293,78.3002547 102.829545,78.3002547 Z M95.1578644,79.8957182 C95.8171945,79.8957182 96.3515786,80.4301024 96.3515786,81.0913547 C96.3515786,81.7506848 95.8171945,82.285069 95.1578644,82.285069 C94.496612,82.285069 93.9622279,81.7506848 93.9622279,81.0913547 C93.9622279,80.4301024 94.496612,79.8957182 95.1578644,79.8957182 Z M87.4842616,81.4892595 C88.1435917,81.4892595 88.6798981,82.0236436 88.6798981,82.684896 C88.6798981,83.3423038 88.1435917,83.8786102 87.4842616,83.8786102 C86.8230093,83.8786102 86.2886251,83.3423038 86.2886251,82.684896 C86.2867029,82.0236436 86.8230093,81.4892595 87.4842616,81.4892595 Z M79.6857129,83.0808785 C80.345043,83.0808785 80.8794272,83.6152626 80.8794272,84.276515 C80.8794272,84.9358451 80.345043,85.4721515 79.6857129,85.4721515 C79.0244606,85.4721515 78.4900764,84.9358451 78.4900764,84.276515 C78.4900764,83.6152626 79.0244606,83.0808785 79.6857129,83.0808785 Z M72.0121101,81.4892595 C72.6714402,81.4892595 73.2077466,82.0236436 73.2077466,82.684896 C73.2077466,83.3423038 72.6714402,83.8786102 72.0121101,83.8786102 C71.3508578,83.8786102 70.8164736,83.3423038 70.8164736,82.684896 C70.8164736,82.0236436 71.3508578,81.4892595 72.0121101,81.4892595 Z M64.3385074,79.8957182 C64.9997597,79.8957182 65.5341439,80.4301024 65.5341439,81.0913547 C65.5341439,81.7506848 64.9997597,82.285069 64.3385074,82.285069 C63.6791773,82.285069 63.1447931,81.7506848 63.1447931,81.0913547 C63.1428709,80.4301024 63.6791773,79.8957182 64.3385074,79.8957182 Z M56.6649046,78.3002547 C57.3242347,78.3002547 57.8605411,78.8346389 57.8605411,79.4958912 C57.8605411,80.1571435 57.3242347,80.6915277 56.6649046,80.6915277 C56.0036523,80.6915277 55.4692681,80.1571435 55.4692681,79.4958912 C55.4692681,78.8346389 56.0055745,78.3002547 56.6649046,78.3002547 Z M53.9756836,96.2136576 C61.3993945,90.4719112 70.4608583,87.3597962 79.9990389,87.3597962 C89.5391417,87.3597962 98.6025278,90.4738334 106.026239,96.217502 C106.306886,97.047912 106.747081,99.4026623 104.082849,102.107261 C97.616416,96.5615839 89.2181268,93.2053438 80.0509395,93.2053438 C70.7299726,93.2053438 62.210582,96.6730742 55.7018598,102.38022 C52.4974771,99.047047 53.9814503,96.2636359 53.9814503,96.2636359 L53.9756836,96.2136576 Z M51.8862031,100.659811 C52.8761594,100.659811 53.6777356,101.461387 53.6777356,102.451343 C53.6777356,103.443222 52.8761594,104.24672 51.8862031,104.24672 C50.8943246,104.24672 50.0927483,103.443222 50.0927483,102.451343 C50.0927483,101.461387 50.8943246,100.659811 51.8862031,100.659811 Z M40.5545677,90.2220193 C41.3849777,89.3819982 42.7401605,89.3762314 43.5782594,90.2047191 L48.2300927,94.8046518 C49.0701139,95.636984 49.0758806,96.9883224 48.247393,97.8283435 C47.4150608,98.6683646 46.0618002,98.6741314 45.221779,97.8456437 L40.5718679,93.245711 C39.733769,92.4153011 39.7260801,91.0601182 40.5545677,90.2220193 Z M34.3976164,123.080878 C34.4014609,123.740209 33.8709212,124.278437 33.2115911,124.282282 C32.5503388,124.286126 32.0121101,123.755587 32.0082657,123.096256 C32.0044212,122.435004 32.5349608,121.898698 33.1962132,121.892931 C33.8555433,121.887164 34.3937719,122.421548 34.3976164,123.080878 Z M32.7579413,115.416887 C32.7617858,116.078139 32.2312461,116.616368 31.5699938,116.620212 C30.9087414,116.625979 30.372435,116.093517 30.3685905,115.432265 C30.364746,114.771013 30.8952857,114.234706 31.5546158,114.230862 C32.2158681,114.225095 32.7540968,114.757557 32.7579413,115.416887 Z M29.9130184,106.56687 C30.5742707,106.563026 31.1105772,107.093565 31.1163439,107.754818 C31.1201884,108.414148 30.5877265,108.954299 29.9283964,108.958143 C29.267144,108.961988 28.7289154,108.431448 28.7250709,107.772118 C28.7212264,107.110865 29.2536883,106.570715 29.9130184,106.56687 Z M30.2186554,155.118939 C29.557403,155.122783 29.0191744,154.590321 29.0153299,153.929069 C29.0114854,153.271661 29.5420251,152.73151 30.2032774,152.727666 C30.8626075,152.723821 31.4008362,153.256283 31.4046807,153.917536 C31.4085252,154.578788 30.8760632,155.115094 30.2186554,155.118939 Z M31.7622183,147.437647 C31.1009659,147.441492 30.5646595,146.90903 30.5588928,146.247777 C30.5550483,145.59037 31.085588,145.050219 31.7468403,145.046374 C32.4080927,145.04253 32.9443991,145.571147 32.9501658,146.232399 C32.9540103,146.893652 32.4215484,147.433803 31.7622183,147.437647 Z M33.3077034,139.752511 C32.6464511,139.756355 32.1082224,139.225816 32.1043779,138.566486 C32.1005334,137.905233 32.6329953,137.368927 33.2923254,137.365082 C33.9535778,137.359316 34.4898842,137.889855 34.4937287,138.551108 C34.4994954,139.210438 33.9689557,139.748666 33.3077034,139.752511 Z M34.8531885,132.071219 C34.1938584,132.075064 33.6556298,131.544524 33.6517853,130.883272 C33.6460185,130.223942 34.1784805,129.685713 34.8397328,129.681868 C35.4990629,129.678024 36.0372916,130.208564 36.041136,130.867894 C36.0449805,131.529146 35.5125186,132.067375 34.8531885,132.071219 Z M45.8618867,104.4351 C46.3674372,104.215964 48.9201788,103.325965 51.9111923,106.22471 C46.4078043,112.681532 43.0784757,121.047143 43.0784757,130.175885 C43.0784757,139.531453 46.5731174,148.083522 52.324475,154.601855 C49.8197895,157.052718 47.6168965,156.850882 46.6538517,156.58369 C40.6295353,149.056178 37.3559518,139.779422 37.3559518,129.999039 C37.3559518,120.656927 40.3431208,111.774232 45.8618867,104.4351 Z M48.3473497,164.524485 L43.747417,169.172473 C42.9150848,170.014417 41.5618242,170.020184 40.7237253,169.191696 C39.8837042,168.357441 39.8779374,167.006103 40.7064251,166.166082 L45.3063578,161.518093 C46.1367677,160.67615 47.4900284,160.670383 48.3300495,161.498871 C49.1700706,162.327358 49.1777596,163.682541 48.3473497,164.524485 Z M52.1380172,160.061031 C51.1461387,160.061031 50.3445624,159.261377 50.3445624,158.269499 C50.3445624,157.27762 51.1461387,156.474122 52.1380172,156.474122 C53.1279735,156.474122 53.931472,157.27762 53.931472,158.269499 C53.931472,159.261377 53.1279735,160.061031 52.1380172,160.061031 Z M56.6649046,181.572877 C56.0036523,181.572877 55.4692681,181.036571 55.4692681,180.375318 C55.4692681,179.714066 56.0036523,179.181604 56.6649046,179.181604 C57.3242347,179.181604 57.8605411,179.714066 57.8605411,180.375318 C57.8605411,181.036571 57.3242347,181.572877 56.6649046,181.572877 Z M64.3385074,179.977414 C63.6791773,179.977414 63.1447931,179.444952 63.1447931,178.783699 C63.1447931,178.122447 63.6791773,177.586141 64.3385074,177.586141 C64.9997597,177.586141 65.5341439,178.122447 65.5341439,178.783699 C65.5341439,179.444952 64.9978375,179.977414 64.3385074,179.977414 Z M72.0121101,178.385795 C71.3508578,178.385795 70.8164736,177.849488 70.8164736,177.188236 C70.8164736,176.530828 71.3508578,175.994522 72.0121101,175.994522 C72.6714402,175.994522 73.2077466,176.530828 73.2077466,177.188236 C73.2077466,177.849488 72.6714402,178.385795 72.0121101,178.385795 Z M79.8087366,176.790331 C79.1494065,176.790331 78.6150223,176.257869 78.6150223,175.596617 C78.6150223,174.935365 79.1494065,174.402903 79.8087366,174.402903 C80.4699889,174.402903 81.0043731,174.935365 81.0043731,175.596617 C81.0043731,176.257869 80.4699889,176.790331 79.8087366,176.790331 Z M87.4823394,178.385795 C86.8230093,178.385795 86.2886251,177.849488 86.2886251,177.188236 C86.2886251,176.530828 86.8230093,175.994522 87.4823394,175.994522 C88.1435917,175.994522 88.6779759,176.530828 88.6779759,177.188236 C88.6779759,177.849488 88.1416695,178.385795 87.4823394,178.385795 Z M95.1559421,179.977414 C94.496612,179.977414 93.9622279,179.444952 93.9622279,178.783699 C93.9622279,178.122447 94.496612,177.586141 95.1559421,177.586141 C95.8171945,177.586141 96.3515786,178.122447 96.3515786,178.783699 C96.3515786,179.444952 95.8171945,179.977414 95.1559421,179.977414 Z M102.829545,181.572877 C102.168293,181.572877 101.635831,181.036571 101.635831,180.375318 C101.635831,179.714066 102.168293,179.181604 102.829545,179.181604 C103.490797,179.181604 104.023259,179.714066 104.023259,180.375318 C104.023259,181.036571 103.490797,181.572877 102.829545,181.572877 Z M106.535634,163.382671 C99.0177327,169.378154 89.7563554,172.640204 79.9990389,172.640204 C70.5185256,172.640204 61.5108847,169.564611 54.112163,163.888221 C53.8776491,162.836753 53.8430487,160.737662 56.1766543,158.377145 C62.6238647,163.84401 70.9548753,167.144505 80.0509395,167.144505 C89.3680619,167.144505 97.891297,163.678697 104.400019,157.969629 C106.67788,160.247489 106.739392,162.283147 106.535634,163.382671 Z M108.332933,159.809217 C107.341054,159.809217 106.539478,159.009563 106.539478,158.017685 C106.539478,157.025806 107.341054,156.226152 108.332933,156.226152 C109.322889,156.226152 110.124465,157.025806 110.124465,158.017685 C110.124465,159.009563 109.322889,159.809217 108.332933,159.809217 Z M119.693402,169.022538 C118.862992,169.864482 117.507809,169.870248 116.66971,169.041761 L112.019799,164.441828 C111.177856,163.607574 111.172089,162.256235 112.000577,161.416214 C112.832909,160.574271 114.188092,160.568504 115.026191,161.400836 L119.676102,166.000769 C120.518045,166.829257 120.525734,168.180595 119.693402,169.022538 Z M113.569129,156.303042 C112.458071,156.495266 110.449325,156.397232 108.209909,154.155894 L107.881205,154.482676 C113.567206,147.97972 117.019559,139.475708 117.019559,130.175885 C117.019559,120.897208 113.582584,112.406651 107.915806,105.90754 C110.610793,103.264453 112.957855,103.69888 113.790187,103.979528 C119.530011,111.401317 122.640204,120.460858 122.640204,129.999039 C122.640204,139.658321 119.449277,148.82743 113.569129,156.303042 Z M124.264501,130.646836 C124.28949,129.987505 124.839252,129.470421 125.500505,129.491566 C126.159835,129.514633 126.676919,130.066317 126.657696,130.725648 C126.632707,131.3869 126.081023,131.902062 125.421693,131.882839 C124.762362,131.85785 124.245278,131.306166 124.264501,130.646836 Z M125.600461,138.49344 C125.623528,137.83411 126.175213,137.317026 126.836465,137.338171 C127.495795,137.361238 128.012879,137.912922 127.991734,138.572252 C127.968667,139.233505 127.416983,139.748666 126.757653,139.727522 C126.094478,139.704455 125.579317,139.15277 125.600461,138.49344 Z M126.936422,146.215099 C126.959489,145.553847 127.513095,145.040607 128.172425,145.061752 C128.833678,145.084819 129.348839,145.636503 129.327695,146.293911 C129.30655,146.955164 128.754866,147.472248 128.093613,147.451103 C127.434283,147.426114 126.915277,146.874429 126.936422,146.215099 Z M129.431496,155.172762 C128.770244,155.149695 128.255082,154.59801 128.274304,153.936758 C128.297371,153.275506 128.849056,152.762266 129.510308,152.779567 C130.169638,152.802633 130.686722,153.354318 130.665577,154.01557 C130.644433,154.676823 130.090826,155.193906 129.431496,155.172762 Z M130.961603,109.033111 C130.302273,109.011966 129.787111,108.458359 129.808256,107.799029 C129.829401,107.139699 130.383007,106.622615 131.042337,106.64376 C131.701668,106.664905 132.216829,107.218511 132.197607,107.879764 C132.17454,108.537171 131.620933,109.054255 130.961603,109.033111 Z" id="Shape"></path>
            </g>
        </g>
    </g>
</svg>