<?xml version="1.0" encoding="UTF-8"?>
<svg width="94px" height="120px" viewBox="0 0 94 120" version="1.1" xmlns="http://www.w3.org/2000/svg" xmlns:xlink="http://www.w3.org/1999/xlink">
    <!-- Generator: Sketch 42 (36781) - http://www.bohemiancoding.com/sketch -->
    <title>Combined Shape</title>
    <desc>Created with Sketch.</desc>
    <defs></defs>
    <g id="Page-1" stroke="none" stroke-width="1" fill="none" fill-rule="evenodd">
        <g id="sticker-7" transform="translate(-78.000000, -115.000000)" fill-rule="nonzero" fill="#FFFFFF">
            <g id="Group" transform="translate(45.000000, 45.000000)">
                <path d="M114.972718,77.5550892 L86.389297,70.2518363 C72.6642183,67.7334732 70.3976915,85.9916055 60.3242392,85.9916055 C58.3095488,85.9916055 55.6652676,84.7324239 55.161595,80.5771249 L33,80.5771249 L33,114.575026 L33,168.593914 C33,186.726128 38.1626443,190 51.2581322,190 L108.67681,190 C118.498426,190 126.43127,190 126.43127,172.497377 L126.43127,94.5540399 C126.557188,92.0356768 126.809024,80.703043 114.972718,77.5550892 Z M105.906611,166.327387 C106.66212,166.956978 106.66212,168.090241 105.906611,168.84575 C105.27702,169.601259 104.143757,169.601259 103.388248,168.84575 L79.841553,145.299056 L56.2948583,168.84575 C55.6652676,169.601259 54.5320042,169.601259 53.7764953,168.84575 C53.0209864,168.216159 53.0209864,167.082896 53.7764953,166.327387 L77.3231899,142.780693 L53.7764953,119.233998 C53.0209864,118.604407 53.0209864,117.471144 53.7764953,116.715635 C54.406086,115.960126 55.5393494,115.960126 56.2948583,116.715635 L79.841553,140.262329 L103.388248,116.715635 C104.017838,115.960126 105.151102,115.960126 105.906611,116.715635 C106.66212,117.345226 106.66212,118.478489 105.906611,119.233998 L82.3599161,142.780693 L105.906611,166.327387 Z M116.231899,89.5173137 C115.602308,92.161595 112.958027,93.798531 110.313746,93.2948583 L84.752361,87.5026233 C82.1080797,86.8730325 80.4711438,84.2287513 80.9748164,81.5844701 C81.478489,79.066107 83.8709339,77.429171 86.389297,77.8069255 C86.7670514,77.8069255 87.6484785,78.0587618 87.9003148,78.18468 L89.2854145,79.5697796 C89.7890871,79.9475341 90.4186779,80.1993704 91.0482686,79.9475341 L92.6852046,79.4438615 C93.3147954,79.1920252 93.9443861,79.3179433 94.3221406,79.8216159 L95.8331584,81.2067156 C96.3368311,81.5844701 96.9664218,81.7103882 97.4700944,81.5844701 L99.1070304,81.0807975 C99.7366212,80.8289612 100.49213,81.0807975 100.869885,81.5844701 L101.625393,82.339979 C102.003148,82.8436516 102.758657,82.9695698 103.388248,82.8436516 L104.899265,82.4658972 C105.402938,82.339979 106.032529,82.4658972 106.536201,82.8436516 L107.795383,83.8509969 C108.299056,84.2287513 108.928646,84.3546695 109.432319,84.2287513 L111.069255,83.7250787 C111.447009,83.5991605 111.698846,83.5991605 112.0766,83.7250787 C115.602308,84.2287513 116.735572,86.9989507 116.231899,89.5173137 Z M55.161595,71.8887723 C55.161595,74.4071354 55.161595,75.0367261 55.161595,77.9328437 L33.1259182,77.9328437 L33.1259182,71.3850997 C33.1259182,70.5036726 33.6295908,70 34.5110178,70 C34.5110178,70 49.8730325,70.1259182 53.524659,70 C54.1542497,70 55.161595,70.2518363 55.161595,71.8887723 Z" id="Combined-Shape"></path>
            </g>
        </g>
    </g>
</svg>