<?xml version="1.0" encoding="UTF-8"?>
<svg width="120px" height="120px" viewBox="0 0 120 120" version="1.1" xmlns="http://www.w3.org/2000/svg" xmlns:xlink="http://www.w3.org/1999/xlink">
    <!-- Generator: Sketch 42 (36781) - http://www.bohemiancoding.com/sketch -->
    <title>Shape</title>
    <desc>Created with Sketch.</desc>
    <defs></defs>
    <g id="Page-1" stroke="none" stroke-width="1" fill="none" fill-rule="evenodd">
        <g id="sticker-2" transform="translate(-65.000000, -115.000000)" fill-rule="nonzero" fill="#FFFFFF">
            <g id="Group" transform="translate(45.000000, 45.000000)">
                <path d="M80,70 C46.86323,70 20,96.86323 20,130 C20,163.13677 46.86323,189.998098 80,189.998098 C113.13677,189.998098 140,163.13677 140,130 C140,96.86323 113.13677,70 80,70 Z M131.546509,113.724558 C133.161499,113.294655 134.82024,114.257181 135.24824,115.874073 C135.676241,117.489062 134.713715,119.147803 133.096823,119.575804 C131.479932,120.005707 129.824995,119.043181 129.396994,117.426289 C128.968994,115.809397 129.929618,114.154461 131.546509,113.724558 Z M130.599201,124.028914 C130.922579,125.246338 130.195929,126.498003 128.976603,126.821381 C127.757276,127.144759 126.507514,126.418109 126.184135,125.200685 C125.860757,123.979456 126.587407,122.731596 127.806734,122.408218 C129.02606,122.084839 130.275823,122.811489 130.599201,124.028914 Z M123.642762,98.2956059 C125.035191,97.369222 126.91459,97.7458627 127.839072,99.1382918 C128.763553,100.528819 128.388815,102.406315 126.998288,103.332699 C125.605859,104.259083 123.72646,103.88054 122.801978,102.490013 C121.875594,101.101389 122.252235,99.2200875 123.642762,98.2956059 Z M110.178809,148.668442 C110.732357,147.783907 111.894617,147.517596 112.777249,148.071143 C113.659882,148.624691 113.926194,149.786951 113.372646,150.667681 C112.821001,151.552216 111.656839,151.818528 110.776108,151.26498 C109.893475,150.713335 109.625262,149.549173 110.178809,148.668442 Z M110.745672,142.297889 L107.650751,147.306449 L107.645045,147.302644 L104.474035,152.396804 C109.830702,156.11946 107.344493,160.028533 106.104242,161.47042 C102.429142,164.527297 98.2994103,166.887959 93.878638,168.482024 L93.8995625,168.459197 C93.8995625,168.459197 86.7110519,170.696215 86.2240822,162.510938 L80.2263648,162.562298 L80.2263648,162.566102 L74.3370744,162.600342 C73.9775537,170.599201 66.9602435,168.75214 66.6311585,168.660833 C62.1000571,167.097204 57.8657029,164.736542 54.1031006,161.645425 C52.9408408,160.370934 49.9847822,156.288758 55.5773255,152.398706 L52.4044132,147.304546 L52.4006087,147.308351 L49.3056877,142.299791 C42.1228838,146.252616 40.1122313,138.866274 40.1122313,138.866274 L40.0894046,138.948069 C39.4445501,136.047175 39.1116606,133.047365 39.1116606,130 C39.1116606,127.898041 39.2714476,125.82081 39.5815104,123.77782 C40.0741868,122.153319 42.0810348,117.473844 48.3032148,120.329085 L51.0785619,115.010462 L51.0747575,115.010462 L53.8158646,109.800266 C46.7605098,105.619174 52.1057637,100.13696 52.1057637,100.13696 L52.065817,100.148374 C56.2887578,96.1898421 61.2117177,93.2261746 66.5474605,91.3715047 L66.5474605,91.3734069 C66.5474605,91.3734069 73.7626022,89.2200875 74.1506563,97.411071 L80.1483736,97.428191 L80.1483736,97.4262888 L86.0376641,97.4643333 C86.4732737,89.8002663 92.9199163,91.2592733 93.7454822,91.4761271 C99.0279627,93.3574282 103.899562,96.3344113 108.07685,100.289138 C108.868176,101.200304 112.592733,106.030055 106.227887,109.800266 L108.968994,115.010462 L108.965189,115.010462 L111.740536,120.329085 C117.591782,117.64124 119.716568,121.624501 120.357618,123.460148 C120.700019,125.603957 120.876926,127.787712 120.876926,130 C120.876926,133.070192 120.540232,136.087122 119.885866,139.007038 C119.575804,139.998098 117.344493,145.931139 110.745672,142.297889 Z M78.2081035,167.342591 C78.1947879,166.298269 79.0298649,165.44417 80.0703823,165.432756 C81.1108998,165.421343 81.964999,166.254518 81.9764124,167.296937 C81.989728,168.33365 81.1546509,169.18775 80.1141335,169.202967 C79.0736161,169.214381 78.2176146,168.379304 78.2081035,167.342591 Z M40.7742058,156.370554 C41.6739585,155.482214 43.1177478,155.493628 44.0041849,156.39338 C44.8887198,157.289329 44.8773064,158.736922 43.979456,159.617653 C43.0816055,160.505992 41.635914,160.494579 40.7513791,159.594826 C39.864942,158.70078 39.8763553,157.255088 40.7742058,156.370554 Z M47.2760129,148.071143 C48.1567434,147.517596 49.3209055,147.785809 49.8744531,148.668442 C50.4260985,149.549173 50.159787,150.711432 49.2790565,151.26498 C48.398326,151.818528 47.234164,151.550314 46.6806163,150.667681 C46.1270687,149.786951 46.3933803,148.624691 47.2760129,148.071143 Z M48.6208864,113.52102 C48.1415256,114.443599 47.0039947,114.805022 46.079513,114.325661 C45.1569336,113.848202 44.7936085,112.710671 45.2729694,111.784288 C45.7523302,110.861708 46.8898611,110.500285 47.8143428,110.979646 C48.7369222,111.460909 49.1002473,112.596538 48.6208864,113.52102 Z M80.3462051,90.7875214 C81.3867225,90.7875214 82.2313106,91.6302073 82.2313106,92.672627 C82.2313106,93.7131444 81.3867225,94.5577325 80.3462051,94.5577325 C79.3056877,94.5577325 78.4610995,93.7150466 78.4610995,92.672627 C78.4591973,91.6321096 79.3056877,90.7875214 80.3462051,90.7875214 Z M113.971847,114.327563 C113.049268,114.806924 111.911737,114.445501 111.432376,113.522922 C110.953015,112.59844 111.312536,111.462811 112.23892,110.981548 C113.163401,110.502188 114.300932,110.86361 114.780293,111.78619 C115.257752,112.712574 114.898231,113.850105 113.971847,114.327563 Z M117.142857,98.1795701 C116.37626,99.1763363 114.941982,99.3646566 113.941411,98.5961575 C112.942743,97.8276584 112.754423,96.3952825 113.522922,95.3928096 C114.291421,94.3941411 115.723797,94.2058208 116.72627,94.9762222 C117.72684,95.7447213 117.913259,97.1809017 117.142857,98.1795701 Z M111.192695,86.2335933 C112.212288,84.9077421 114.112612,84.6604527 115.436561,85.6800457 C116.76051,86.6996386 117.009701,88.5980597 115.992011,89.923911 C114.972418,91.24786 113.072094,91.4970516 111.746243,90.4774586 C110.422294,89.4578657 110.175005,87.5575423 111.192695,86.2335933 Z M103.578086,85.3186228 C104.772684,85.7256991 105.40993,87.0211147 105.002853,88.2157124 C104.599582,89.4084078 103.300361,90.0475556 102.107666,89.6423816 C100.913068,89.2372075 100.275823,87.9398897 100.680997,86.7471942 C101.086171,85.5506943 102.383489,84.9134487 103.578086,85.3186228 Z M95.5240632,78.8206201 C96.0604908,77.2379684 97.7820049,76.391478 99.3627544,76.9298079 C100.947308,77.4681377 101.793799,79.1858474 101.255469,80.7704014 C100.717139,82.3530531 98.9975271,83.1995435 97.4148754,82.6612136 C95.8303215,82.1228838 94.9857333,80.4051741 95.5240632,78.8206201 Z M88.0178809,80.4089785 C89.2790565,80.4089785 90.3005516,81.4304737 90.3005516,82.6916492 C90.3005516,83.9528248 89.2790565,84.9762222 88.0178809,84.9762222 C86.7586076,84.9762222 85.733308,83.9528248 85.733308,82.6916492 C85.733308,81.4304737 86.7586076,80.4089785 88.0178809,80.4089785 Z M81.3277535,73.8253757 C82.9979076,73.8253757 84.3541944,75.1797603 84.3541944,76.8518166 C84.3541944,78.5219707 82.9979076,79.8782576 81.3277535,79.8782576 C79.6556972,79.8782576 78.2994103,78.5219707 78.2994103,76.8518166 C78.2994103,75.1797603 79.6556972,73.8253757 81.3277535,73.8253757 Z M69.0793228,81.3391668 C70.2491916,80.8674149 71.5788473,81.4380826 72.048697,82.6079513 C72.5185467,83.7797223 71.9497812,85.1074757 70.7818147,85.5792277 C69.6100438,86.0471752 68.2822903,85.4784097 67.8105383,84.3104432 C67.3406886,83.1386722 67.9094541,81.8090165 69.0793228,81.3391668 Z M60.4165874,77.7211337 C61.9688035,77.0972037 63.7302644,77.8504851 64.3522922,79.4007989 C64.9762222,80.953015 64.2229408,82.7144759 62.6707247,83.3365037 C61.1204109,83.9604337 59.3570477,83.2071524 58.73502,81.6549363 C58.1129922,80.1046224 58.8662735,78.3431615 60.4165874,77.7211337 Z M54.0745672,87.7496671 C55.0313867,86.9279056 56.4732737,87.0382347 57.293133,87.9950542 C58.1167967,88.9499715 58.0064676,90.3918585 57.0496481,91.2155222 C56.0909264,92.0372836 54.6509416,91.9269545 53.8310824,90.9682328 C53.0112231,90.0133156 53.1177478,88.5733308 54.0745672,87.7496671 Z M44.7099106,87.1124215 C45.9786951,86.0243485 47.8904318,86.1689176 48.9766026,87.4377021 C50.0665779,88.7064866 49.9201065,90.6182233 48.6532243,91.7062964 C47.3844398,92.7962716 45.4746053,92.6498003 44.3865322,91.3810158 C43.296557,90.1122313 43.4411261,88.2023968 44.7099106,87.1124215 Z M41.9364657,98.651322 C42.5775157,97.5670535 43.9756515,97.2056306 45.0637246,97.8466806 C46.1479932,98.4877306 46.509416,99.8877687 45.868366,100.97394 C45.227316,102.058208 43.8272779,102.419631 42.7411071,101.778581 C41.6568385,101.137531 41.2954156,99.7374929 41.9364657,98.651322 Z M32.866654,101.063344 C33.7169488,99.6233593 35.5716188,99.1459007 37.0116036,99.9961955 C38.4515884,100.84649 38.9271448,102.703063 38.0787521,104.141145 C37.2284573,105.579228 35.3718851,106.058589 33.9338025,105.208294 C32.4919155,104.359901 32.0144569,102.503329 32.866654,101.063344 Z M35.5107476,128.364086 C35.6629256,129.617653 34.772684,130.757086 33.5229218,130.909264 C32.2712574,131.065246 31.1318242,130.173103 30.977744,128.92334 C30.8236637,127.673578 31.7139053,126.532243 32.9655697,126.380065 C34.2191364,126.224082 35.3566673,127.114324 35.5107476,128.364086 Z M26.1441887,118.086361 C26.4865893,116.450447 28.086361,115.400418 29.7241773,115.740917 C31.3600913,116.083317 32.4101198,117.684991 32.0677192,119.320905 C31.7272208,120.958722 30.1255469,122.00875 28.4877306,121.66635 C26.8518166,121.323949 25.8017881,119.722275 26.1441887,118.086361 Z M25.261556,136.368651 C25.0580179,134.708008 26.2354955,133.195739 27.8942363,132.992201 C29.5548792,132.792467 31.0652463,133.969945 31.2668823,135.630588 C31.4704204,137.287426 30.2910405,138.799696 28.6322998,138.999429 C26.9735591,139.202967 25.4631919,138.02549 25.261556,136.368651 Z M34.3522922,155.364276 C32.8476317,156.092829 31.0386152,155.46129 30.3100628,153.956629 C29.5834126,152.451969 30.2130493,150.642952 31.7177097,149.9144 C33.2223702,149.189652 35.0332889,149.817386 35.7599391,151.322047 C36.4884915,152.826707 35.8569526,154.635724 34.3522922,155.364276 Z M36.3762602,146.130873 C35.2406315,146.676812 33.8767358,146.201255 33.3250904,145.067529 C32.7772494,143.929998 33.2528058,142.568005 34.3884345,142.016359 C35.5259654,141.466616 36.8898611,141.942172 37.4396043,143.079703 C37.9893475,144.217234 37.5118889,145.58113 36.3762602,146.130873 Z M35.7237968,115.58113 C34.4892524,115.324329 33.6979266,114.114514 33.9528248,112.87997 C34.2115275,111.64923 35.4194407,110.856002 36.6539852,111.1109 C37.8885296,111.369602 38.6817577,112.579418 38.4249572,113.813962 C38.1662545,115.046605 36.956439,115.83793 35.7237968,115.58113 Z M45.0370934,169.014647 C43.8463002,170.18832 41.9288568,170.173103 40.7570858,168.984212 C39.5834126,167.791516 39.5986304,165.874073 40.7875214,164.704204 C41.9802169,163.530531 43.895758,163.545749 45.0694312,164.73464 C46.2412022,165.927335 46.2259844,167.840974 45.0370934,169.014647 Z M52.4576755,170.964428 C51.3315579,170.395663 50.876926,169.024158 51.441887,167.899943 C52.006848,166.770021 53.3802549,166.313487 54.5063725,166.878448 C55.6343922,167.447213 56.0890242,168.818718 55.5221609,169.942933 C54.9571999,171.072855 53.5856953,171.525585 52.4576755,170.964428 Z M59.5472703,178.499144 C58.7977934,179.992391 56.9792657,180.595397 55.4860186,179.844018 C53.9927715,179.096443 53.3859616,177.276013 54.1354385,175.782766 C54.8868176,174.289519 56.7053453,173.682709 58.1985924,174.434088 C59.6937417,175.185467 60.2986494,177.005897 59.5472703,178.499144 Z M69.7736352,176.003424 C69.6005326,177.251284 68.4496861,178.124406 67.1999239,177.953205 C65.9501617,177.7782 65.0789424,176.627354 65.2501427,175.377592 C65.4232452,174.129732 66.5740917,173.25661 67.8257561,173.427811 C69.0736161,173.599011 69.9448355,174.753662 69.7736352,176.003424 Z M76.3401179,182.801978 C76.1118509,184.458817 74.5824615,185.61537 72.9275252,185.387103 C71.2706867,185.156934 70.1141335,183.629446 70.3443028,181.976412 C70.5725699,180.319574 72.1000571,179.161119 73.7549933,179.391288 C75.4099296,179.621457 76.5664828,181.148944 76.3401179,182.801978 Z M83.4087883,179.821191 C82.1704394,180.058969 80.9739395,179.248621 80.7342591,178.012174 C80.4964809,176.771923 81.3049268,175.575423 82.5432756,175.337645 C83.7797223,175.099867 84.9781244,175.910215 85.2178048,177.146662 C85.4574853,178.383108 84.6471372,179.579608 83.4087883,179.821191 Z M91.2250333,185.016169 C89.5853148,185.335743 87.9969564,184.262888 87.6792848,182.619365 C87.3635153,180.977744 88.4363706,179.391288 90.0798935,179.075518 C91.7196119,178.755944 93.3079703,179.8288 93.6237398,181.472323 C93.9414115,183.113943 92.866654,184.700399 91.2250333,185.016169 Z M99.3551455,176.370554 C98.2613658,176.998288 96.8651322,176.615941 96.2412022,175.520259 C95.61537,174.424577 95.9977173,173.030245 97.0914971,172.406315 C98.1852768,171.782385 99.5815104,172.160928 100.20544,173.25661 C100.831273,174.352292 100.450827,175.746624 99.3551455,176.370554 Z M108.428762,178.774967 C106.975461,179.604337 105.130302,179.098345 104.29903,177.645045 C103.471562,176.191744 103.977554,174.346586 105.428952,173.517215 C106.88035,172.687845 108.729313,173.193837 109.556781,174.643333 C110.388054,176.094731 109.882062,177.945596 108.428762,178.774967 Z M113.34221,167.970325 C112.507133,168.913829 111.063344,169.003234 110.11984,168.168157 C109.174434,167.33308 109.086932,165.891193 109.922009,164.947689 C110.757086,164.004185 112.198973,163.91478 113.142477,164.749857 C114.089785,165.584934 114.17919,167.026821 113.34221,167.970325 Z M122.704965,167.323569 C121.59787,168.575233 119.686133,168.691269 118.434468,167.584173 C117.182804,166.477078 117.064866,164.563439 118.171961,163.315579 C119.279056,162.06011 121.190793,161.944075 122.44436,163.05117 C123.697927,164.158265 123.813962,166.071904 122.704965,167.323569 Z M123.878638,155.51265 C123.391668,156.678714 122.052501,157.224653 120.892144,156.739585 C119.727982,156.252616 119.182043,154.915351 119.667111,153.753091 C120.152178,152.590831 121.491345,152.041088 122.651702,152.526156 C123.815865,153.013125 124.365608,154.35039 123.878638,155.51265 Z M122.263648,110.886437 C121.565532,109.836409 121.850866,108.419251 122.900894,107.721134 C123.94902,107.021115 125.368081,107.306449 126.064295,108.356477 C126.764314,109.406506 126.47898,110.823664 125.428952,111.523683 C124.378923,112.219897 122.963667,111.934563 122.263648,110.886437 Z M125.288187,140.01712 C125.373787,138.757847 126.463763,137.806734 127.721134,137.892334 C128.978505,137.981739 129.929618,139.069812 129.842115,140.329085 C129.756515,141.584554 128.66654,142.535667 127.409169,142.450067 C126.151798,142.360662 125.200685,141.272589 125.288187,140.01712 Z M132.535667,151.883203 C131.88891,153.425908 130.117938,154.152558 128.573331,153.507704 C127.030626,152.864752 126.30778,151.089975 126.950732,149.54727 C127.593685,148.004565 129.368461,147.28172 130.911166,147.92277 C132.453871,148.573331 133.180521,150.340498 132.535667,151.883203 Z M133.642762,136.918395 C131.97451,136.802359 130.715237,135.35857 130.82937,133.690318 C130.943504,132.022066 132.387293,130.762792 134.055545,130.876926 C135.721895,130.992962 136.981168,132.438653 136.867034,134.106905 C136.754803,135.76945 135.309112,137.028724 133.642762,136.918395 Z" id="Shape"></path>
            </g>
        </g>
    </g>
</svg>