<?xml version="1.0" encoding="UTF-8"?>
<svg width="120px" height="112px" viewBox="0 0 120 112" version="1.1" xmlns="http://www.w3.org/2000/svg" xmlns:xlink="http://www.w3.org/1999/xlink">
    <!-- Generator: Sketch 42 (36781) - http://www.bohemiancoding.com/sketch -->
    <title>Shape</title>
    <desc>Created with Sketch.</desc>
    <defs></defs>
    <g id="Page-1" stroke="none" stroke-width="1" fill="none" fill-rule="evenodd">
        <g id="sticker-3" transform="translate(-65.000000, -115.000000)" fill-rule="nonzero" fill="#FFFFFF">
            <path d="M177.219936,126.280718 C175.607678,125.054174 173.596359,124.72318 171.7799,125.203655 C171.451576,125.290407 171.100563,125.211662 170.829629,125.004792 L161.057317,117.572122 C155.517182,113.35863 147.609377,114.434359 143.395885,119.974493 L65.2507566,222.726575 C64.8396842,223.267109 64.9451216,224.038537 65.4856551,224.449609 L68.5513476,226.781244 C69.0918811,227.192316 69.8633091,227.086879 70.2743815,226.546346 L147.44388,125.078197 C150.086489,121.604102 155.044716,120.928769 158.520146,123.571377 L166.674861,129.773498 C166.972488,130.000389 167.144658,130.360745 167.111292,130.733112 C166.921772,132.825844 167.779952,134.966624 169.576392,136.331971 L177.194577,142.12569 C177.374755,142.261824 177.631008,142.227123 177.767143,142.04828 L184.916866,132.647001 C185.053,132.466823 185.018299,132.21057 184.839456,132.074436 L177.219936,126.280718 Z" id="Shape"></path>
        </g>
    </g>
</svg>