<?xml version="1.0" encoding="UTF-8"?>
<svg width="120px" height="113px" viewBox="0 0 120 113" version="1.1" xmlns="http://www.w3.org/2000/svg" xmlns:xlink="http://www.w3.org/1999/xlink">
    <!-- Generator: Sketch 42 (36781) - http://www.bohemiancoding.com/sketch -->
    <title>Shape</title>
    <desc>Created with Sketch.</desc>
    <defs></defs>
    <g id="Page-1" stroke="none" stroke-width="1" fill="none" fill-rule="evenodd">
        <g id="sticker-1" transform="translate(-65.000000, -115.000000)" fill-rule="nonzero" fill="#FFFFFF">
            <path d="M80.4822654,226.154101 C84.0054175,224.338276 85.5609534,221.321134 86.8872523,217.85432 C88.7047731,213.049046 92.0737362,209.878936 95.8247607,206.455639 C100.428601,202.250364 105.03517,198.042452 109.640375,193.838496 C123.892631,180.828386 138.143522,167.813002 152.395778,154.798936 C153.597907,153.700474 154.8014,152.602013 156.002165,151.506189 C161.606187,146.389705 167.131068,143.795859 174.704071,142.736958 C182.817419,141.602892 185.409978,133.698716 184.948776,126.529046 C184.804138,124.080254 184.056389,120.991903 182.281168,124.18443 C181.074946,126.357617 179.867359,128.530804 178.658407,130.709265 C176.839522,133.990145 171.007627,132.021353 168.735726,130.235859 C168.02209,129.672782 164.818232,126.602892 165.458185,125.540035 C165.808863,124.959815 166.158176,124.379595 166.510218,123.800694 C167.889733,121.512782 169.269248,119.22487 170.651491,116.938276 C171.925939,114.82443 170.344478,114.605529 168.162634,115.487727 C164.043193,117.113661 160.318094,119.590145 157.609552,123.027947 C155.303538,125.958057 155.744273,129.627947 154.794578,133.06443 C153.506485,137.739156 150.671043,141.072782 147.149255,144.339156 C133.350015,157.142232 119.550775,169.946628 105.7529,182.752342 C100.166616,187.93476 94.577603,193.119815 88.9954127,198.303551 C85.341268,201.692562 81.6025241,204.319375 76.7858211,206.003331 C72.2952348,207.571243 68.4295918,208.237178 66.1208492,212.728606 C64.1245783,216.609485 64.7890922,221.65476 68.1607843,224.690364 C71.7125911,227.82487 76.2550286,228.033221 80.4822654,226.154101 Z M71.8599577,224.329046 L69.2714915,222.296958 L67.7623489,219.42487 L67.5917857,216.208606 L68.7911857,213.205969 L71.153144,210.929925 L74.2628511,209.780035 L77.5908791,209.952782 L80.5586777,211.419156 L82.6518285,213.923331 L83.5128312,217.035419 L82.9834032,220.217397 L81.1658824,222.916738 L78.368647,224.666628 L75.0747317,225.166408 L71.8599577,224.329046 Z" id="Shape"></path>
        </g>
    </g>
</svg>